<svg width="293" height="330" viewBox="0 0 293 330" fill="none" xmlns="http://www.w3.org/2000/svg">
<path fill-rule="evenodd" clip-rule="evenodd" d="M160.492 274.884C165.85 274.636 174.389 276.708 180.081 277.122C188.118 277.702 196.238 277.122 204.274 277.205L203.772 285.907C189.206 287.979 173.97 286.819 160.576 283.753L160.492 274.884ZM47.4782 167.554L47.0595 184.959C47.0595 185.456 47.0595 186.036 47.0595 186.533V202.778H52.9196C51.329 224.907 37.6836 301.406 29.7308 330L44.1585 303.699C50.3533 283.145 49.8221 272.978 52.0824 260.877C53.9241 251.015 55.5146 240.903 57.1889 231.206L62.0444 202.032C62.1281 201.866 62.2954 201.452 62.4629 201.203L85.4842 202.695C88.3305 206.342 88.0793 206.259 92.0976 209.077C89.5024 213.304 87.6608 216.536 87.8282 222.255C99.3807 228.803 97.5391 223.332 124.746 241.898C141.74 253.501 156.055 256.236 159.153 264.441C156.641 266.845 153.46 265.685 153.628 269.829C154.046 279.691 151.702 289.803 158.064 290.3L147.6 329.834L152.962 326.979L165.431 292.455C174.221 295.439 191.382 296.35 199.586 294.113L215.17 321.689L219.446 328.038C215.344 316.849 206.702 294.776 206.702 293.947C207.707 289.554 212.06 297.179 211.892 277.702C211.892 277.288 211.892 276.873 211.892 276.376C211.725 267.176 211.055 272.398 206.535 267.674C204.191 265.27 207.121 264.027 211.558 263.281C217.417 262.286 222.273 260.795 227.714 259.883C242.783 254.661 260.028 245.627 279.701 244.881C280.873 239.411 279.868 234.273 278.026 230.129C281.208 230.46 282.38 230.709 284.891 229.466C286.314 221.841 282.966 215.956 279.701 211.315C266.809 192.749 277.106 199.131 265.218 176.67C261.2 169.045 266.893 173.107 269.153 159.514C272.836 137.551 265.302 134.484 245.545 139.457C227.463 144.098 239.769 147.911 208.711 137.219L209.465 131.003C305.903 132.412 298.788 67.9309 269.069 2.70366C256.261 0.880283 179.495 24.3356 156.725 26.5733C143.582 27.8994 101.892 8.91972 83.3078 3.61535C62.1281 -2.43495 41.8694 -3.01511 32.5771 18.8654C28.8937 27.485 27.0519 24.4184 19.5176 29.7228C-1.15976 44.2269 -4.17343 68.8425 5.95597 90.3916C11.2299 98.0166 15.0808 102.161 23.5359 106.222C31.3213 109.951 43.8785 113.515 49.1525 105.89C56.9379 94.6185 42.7902 66.439 76.6944 66.5219C63.5513 91.5519 59.8677 124.124 56.6028 167.636C54.2588 167.968 50.2407 167.554 47.4782 167.554ZM56.1843 183.964L56.2681 175.842L104.99 178.162C106.664 184.793 94.3579 187.859 89.8374 194.573L56.1007 192.252V183.964H56.1843ZM153.711 174.018C153.041 163.741 169.784 160.674 174.556 172.692C165.096 169.709 163.506 168.548 153.711 174.018ZM204.777 175.842C207.288 171.366 211.641 169.211 217.501 170.869C222.859 172.361 224.701 175.676 225.036 182.224C220.013 177.831 219.259 174.018 204.777 175.842ZM148.102 144.015C146.763 145.756 133.285 156.696 131.862 149.237C130.774 143.933 130.02 135.976 134.708 135.893C138.894 135.81 146.344 140.203 148.102 144.015ZM239.267 154.873C244.959 150.895 249.647 148.574 257.517 149.734C258.437 156.53 255.842 162.083 252.243 165.647C249.313 164.238 240.69 157.691 239.267 154.873ZM144.754 68.0966C143.331 58.068 146.93 51.6862 153.711 48.6196C157.311 46.962 161.832 46.4647 166.268 47.6251L172.714 50.9403C174.137 52.1835 173.3 51.3547 174.137 52.6808C168.696 55.0843 163.003 53.924 156.139 57.4879C148.186 61.6319 149.442 65.6931 144.754 68.0966ZM182.174 197.225C180.332 194.158 170.035 185.622 178.909 183.384C185.188 181.809 194.647 183.55 198.582 187.445C198.331 194.158 193.643 194.324 189.792 198.302C190.713 207.834 199.335 214.713 207.121 217.945C226.291 225.819 225.538 211.066 234.328 212.807C241.443 229.548 196.238 234.107 185.522 207.917C181.002 210.154 179.077 213.387 172.798 216.37C146.177 229.051 128.932 207.834 134.875 202.612C143.331 199.214 138.726 215.21 160.074 212.724C170.454 211.646 179.746 205.016 182.174 197.225ZM40.6972 21.1861C50.994 -8.73389 108.84 22.1807 129.016 28.231C110.012 32.2092 59.7003 12.7322 40.6972 21.1861ZM16.0017 90.3916C0.430939 70.9146 10.2254 44.89 26.0474 35.1929C44.4644 23.9211 74.2666 28.3967 95.8648 32.7065C122.821 38.1766 141.489 37.7622 168.529 32.7065L234.997 17.788C242.448 37.265 256.261 38.2595 274.008 38.8397C305.485 152.884 175.812 122.715 161.078 105.807C171.124 120.146 191.801 124.953 201.261 128.931L200.675 135.396C190.294 135.562 180.248 133.572 168.11 135.064C161.58 135.893 160.911 137.882 155.888 134.236C152.204 131.5 150.446 130.174 145.675 128.019C118.049 115.422 116.458 129.346 120.979 158.602C115.37 162.415 115.538 164.653 110.766 170.123L65.0581 167.636C63.7187 127.688 74.6852 89.8943 85.9028 66.2732C90.5908 66.3561 96.9531 68.0137 101.976 67.3507C108.84 66.439 110.096 60.4716 100.888 59.2284C84.8983 58.2338 67.9881 55.5816 55.431 64.2012C50.743 67.4336 46.8084 72.4064 45.2178 80.1143C42.4552 93.9554 48.8174 106.719 31.4049 100.917C25.3775 98.8454 20.3549 94.95 16.0017 90.3916ZM229.556 152.718C237.928 151.889 249.229 142.275 262.037 145.01C262.791 150.646 262.874 157.359 260.949 162.498C258.354 169.543 254.168 167.554 255.507 175.51C261.116 183.55 263.544 187.031 265.972 201.037C268.064 212.972 273.924 211.978 276.436 221.26C271.832 220.597 272.418 219.934 268.065 221.592C266.976 226.15 268.232 226.979 270.074 230.626C276.101 242.478 269.655 237.671 253.331 242.975C247.555 244.799 242.448 247.036 236.588 249.108L210.051 256.568C199.252 258.391 200.173 258.225 198.749 266.43C197.494 273.807 168.11 272.232 166.017 263.53C165.264 260.463 164.594 256.485 159.571 253.087C153.795 249.274 144.503 246.207 137.722 242.063C126.588 235.267 109.678 221.26 96.1997 217.945C98.2088 207.336 113.528 203.441 96.4508 199.711C101.808 189.517 103.399 198.137 113.194 180.317C115.956 175.344 117.128 173.189 120.393 168.88C123.658 164.57 126.002 162.995 129.099 159.266C128.262 152.304 124.411 144.927 127.76 131.003C139.815 128.102 150.949 144.927 160.492 143.518C165.682 142.772 169.617 141.861 175.393 141.529C189.29 140.7 222.106 145.507 229.556 152.718Z" fill="#01B052"/>
<path fill-rule="evenodd" clip-rule="evenodd" d="M164.767 274.884C170.125 274.636 178.664 276.708 184.356 277.122C192.393 277.702 200.513 277.122 208.55 277.205L208.047 285.907C193.481 287.979 178.245 286.819 164.851 283.753L164.767 274.884ZM51.7535 167.554L51.3348 184.959C51.3348 185.456 51.3348 186.036 51.3348 186.533V202.778H57.1948C55.6043 224.907 39.0448 296.269 31.0919 324.863L44.1585 303.699C50.3533 283.145 54.0974 272.978 56.3577 260.877C58.1994 251.015 59.7899 240.903 61.4642 231.206L66.3197 202.032C66.4034 201.866 66.5707 201.452 66.7382 201.203L89.7595 202.695C92.6058 206.342 92.3546 206.259 96.3729 209.077C93.7777 213.304 91.9361 216.536 92.1035 222.255C103.656 228.803 101.814 223.332 129.021 241.898C146.015 253.501 160.33 256.236 163.428 264.441C160.916 266.845 157.735 265.685 157.903 269.829C158.321 279.691 155.977 289.803 162.34 290.3L152.11 326.979H152.962L169.706 292.455C178.496 295.439 195.658 296.35 203.862 294.113L219.446 328.038L224.037 329.917C219.935 318.728 210.978 294.776 210.978 293.947C211.982 289.554 216.335 297.179 216.168 277.702C216.168 277.288 216.168 276.873 216.168 276.376C216 267.176 215.33 272.398 210.81 267.674C208.466 265.27 211.396 264.027 215.833 263.281C221.693 262.286 226.548 260.795 231.99 259.883C247.058 254.661 264.303 245.627 283.976 244.881C285.148 239.411 284.143 234.273 282.302 230.129C285.483 230.46 286.655 230.709 289.166 229.466C290.589 221.841 287.241 215.956 283.976 211.315C271.084 192.749 281.381 199.131 269.494 176.67C265.475 169.045 271.168 173.107 273.428 159.514C277.112 137.551 269.577 134.484 249.821 139.457C231.739 144.098 244.045 147.911 212.987 137.219L213.74 131.003C310.179 132.412 303.063 67.9309 273.344 2.70366C260.536 0.880283 183.77 24.3356 161 26.5733C147.857 27.8994 106.168 8.91972 87.5831 3.61535C66.4034 -2.43495 46.1446 -3.01511 36.8524 18.8654C33.169 27.485 31.3271 24.4184 23.7929 29.7228C3.11553 44.2269 0.101862 68.8425 10.2313 90.3916C15.5052 98.0166 19.3561 102.161 27.8112 106.222C35.5966 109.951 48.1538 113.515 53.4278 105.89C61.2132 94.6185 47.0655 66.439 80.9697 66.5219C67.8266 91.5519 64.1431 124.124 60.8783 167.636C58.5343 167.968 54.516 167.554 51.7535 167.554ZM60.4596 183.964L60.5434 175.842L109.265 178.162C110.939 184.793 98.6332 187.859 94.1126 194.573L60.376 192.252V183.964H60.4596ZM186.449 197.225C184.608 194.158 174.311 185.622 183.184 183.384C189.463 181.809 198.923 183.55 202.857 187.445C202.606 194.158 197.918 194.324 194.067 198.302C194.988 207.834 203.611 214.713 211.396 217.945C230.566 225.819 229.813 211.066 238.603 212.807C245.719 229.548 200.513 234.107 189.798 207.917C185.277 210.154 183.352 213.387 177.073 216.37C150.452 229.051 133.207 207.834 139.151 202.612C147.606 199.214 143.002 215.21 164.349 212.724C174.729 211.646 184.022 205.016 186.449 197.225ZM44.9725 21.1861C55.2693 -8.73389 113.116 22.1807 133.291 28.231C114.288 32.2092 63.9756 12.7322 44.9725 21.1861ZM20.277 90.3916C4.70623 70.9146 14.5007 44.89 30.3226 35.1929C48.7397 23.9211 78.5419 28.3967 100.14 32.7065C127.096 38.1766 145.764 37.7622 172.804 32.7065L239.273 17.788C246.723 37.265 260.536 38.2595 278.284 38.8397C309.76 152.884 180.087 122.715 165.353 105.807C175.399 120.146 196.076 124.953 205.536 128.931L204.95 135.396C194.57 135.562 184.524 133.572 172.385 135.064C165.856 135.893 165.186 137.882 160.163 134.236C156.48 131.5 154.722 130.174 149.95 128.019C122.324 115.422 120.734 129.346 125.254 158.602C119.645 162.415 119.813 164.653 115.041 170.123L69.3334 167.636C67.994 127.688 78.9605 89.8943 90.1781 66.2732C94.8661 66.3561 101.228 68.0137 106.251 67.3507C113.116 66.439 114.372 60.4716 105.163 59.2284C89.1736 58.2338 72.2634 55.5816 59.7063 64.2012C55.0183 67.4336 51.0836 72.4064 49.4931 80.1143C46.7305 93.9554 53.0927 106.719 35.6802 100.917C29.6528 98.8454 24.6302 94.95 20.277 90.3916ZM232.271 151.321C240.643 150.492 253.504 142.275 266.312 145.01C267.066 150.646 267.149 157.359 265.224 162.498C262.629 169.543 258.443 167.554 259.783 175.51C265.391 183.55 267.819 187.031 270.247 201.037C272.34 212.972 278.2 211.978 280.711 221.26C276.107 220.597 276.693 219.934 272.34 221.592C271.252 226.15 272.507 226.979 274.349 230.626C280.376 242.478 273.93 237.671 257.606 242.975C251.83 244.799 246.723 247.036 240.863 249.108L214.326 256.568C203.527 258.391 204.448 258.225 203.025 266.43C201.769 273.807 172.385 272.232 170.292 263.53C169.539 260.463 168.869 256.485 163.846 253.087C158.07 249.274 148.778 246.207 141.997 242.063C130.863 235.267 113.953 221.26 100.475 217.945C102.484 207.336 117.804 203.441 100.726 199.711C106.084 189.517 107.674 198.137 117.469 180.317C120.232 175.344 121.403 173.189 124.668 168.88C127.933 164.57 130.277 162.995 133.375 159.266C126.545 144.971 128.687 144.927 132.035 131.003C144.09 128.102 155.392 142.148 164.936 140.739C170.126 139.993 173.892 141.861 179.668 141.529C193.565 140.7 224.821 144.11 232.271 151.321Z" fill="#01B052"/>
</svg>
