<svg width="320" height="320" viewBox="0 0 320 320" fill="none" xmlns="http://www.w3.org/2000/svg">
<rect width="320" height="320" fill="none"/>
<path fill-rule="evenodd" clip-rule="evenodd" d="M160 37.9742C119.653 37.9652 51.4218 55.0585 50.7734 79.982L51.4218 160.977C57.1133 222.87 100.264 274.878 160 291.84C219.736 274.878 262.887 222.87 268.578 160.977L269.227 79.982C269.134 60.4871 200.348 37.9652 160 37.9742Z" fill="#26D07C"/>
<path fill-rule="evenodd" clip-rule="evenodd" d="M158.125 225.349L158.127 225.333C157.589 228.899 155.537 231.927 151.971 234.416C147.935 237.174 142.889 246.358 151.971 246.358C154.354 246.358 159.944 245.293 161.76 243.297C162.298 242.758 162.837 241.547 163.375 239.664C163.98 237.914 164.619 236.737 165.292 236.132C166.234 239.765 166.606 247.82 163.847 253.471C161.156 258.921 160.282 263.058 161.224 265.884C163.915 267.431 169.431 266.578 177.774 265.031C179.456 246.933 179.86 219.88 177.774 187.654C183.291 186.443 185.341 185.236 187.696 185.371C191.329 185.505 198.833 186.52 201.053 189.481C210.876 202.331 216.283 211.037 217.898 214.535C218.571 216.15 220.723 224.321 224.356 238.315C224.222 239.459 224.558 251.357 224.356 252.434C229.092 262.021 233.742 259.147 239.09 259.147C238.821 257.062 238.081 250.764 235.659 247.535C232.968 244.104 234.28 238.15 233.742 236.132C233.405 234.651 233.103 232.33 232.833 229.168C232.632 225.804 232.362 223.349 232.026 221.801C227.249 200.273 222.54 182.679 217.898 169.022C220.056 169.587 226.656 172.455 231.264 172.188C238.722 171.755 246.575 169.587 245.417 165.96C245.014 164.009 243.87 162.933 241.986 162.731C241.65 162.664 240.775 162.63 239.362 162.63C238.219 162.63 237.277 162.529 236.537 162.327C233.566 161.609 229.5 163.068 226.25 162.327C218.239 160.5 211.109 156.116 207.806 151.665C202.626 144.6 195.029 140.597 193.549 139.655C190.656 137.772 190.65 136.09 184.999 134.61C177.329 132.591 157.865 114.547 155.779 112.596C153.492 110.443 152.247 108.559 152.045 106.944C151.844 104.859 152.752 101.091 154.77 95.6418C156.519 90.7978 156.788 86.963 155.577 84.1374C155.51 85.4156 155.377 75.8622 152.821 72.2292C152.013 71.0182 150.836 69.4709 149.289 67.5871C147.405 65.2996 146.194 63.8195 145.656 63.1468C143.57 63.7523 141.754 65.7033 140.206 68.9999C138.524 72.7002 137.011 74.954 135.665 75.7613C135.286 75.6738 131.88 74.1949 129.597 73.6918C126.612 73.0339 123.325 73.2451 122.981 72.3302C122.443 70.7155 122.006 69.5381 121.67 68.7981C120.459 66.2415 118.81 64.9633 116.725 64.9633C114.37 64.9633 111.477 66.177 109.661 70.0791C109.324 70.8191 107.575 73.4582 105.019 80.7914C101.386 91.1522 100.914 100.486 101.385 104.522C102.865 117.171 104.817 125.177 107.239 128.541C107.508 128.81 108.315 129.112 109.661 129.449C110.737 129.718 111.309 130.223 111.376 130.963C110.838 133.25 104.81 138.68 103.531 142.986C102.186 147.426 101.244 150.756 100.706 152.976C98.7547 160.781 98.2501 167.912 99.192 174.371C99.7975 178.475 100.134 184.9 100.201 193.646C100.268 202.93 100.538 209.691 101.008 213.93C101.21 215.948 101.648 218.639 102.32 222.003C103.195 226.107 103.733 228.832 103.935 230.177C104.944 236.636 104.742 242.22 103.33 246.93C100.167 250.966 95.8664 256.886 94.7227 263.211C94.7227 268.009 107.882 269.457 114.266 262.287C115.816 260.547 116.843 250.274 115.767 241.394C115.228 236.482 116.482 227.991 117.357 219.178C118.299 209.355 119.722 202.693 119.654 199.867C119.452 193.476 122.107 183.112 124.394 182.036C133.14 187.418 151.736 192.166 152.678 192.637C153.485 193.108 153.956 193.612 154.09 194.15C156.662 215.117 158.006 225.519 158.122 225.357L158.125 225.349Z" fill="white"/>
<path fill-rule="evenodd" clip-rule="evenodd" d="M120.847 144.011C119.964 144.523 118.753 141.528 119.281 140.161C121.142 135.348 122.901 136.684 122.592 139.037C122.285 141.384 122.592 142.999 120.847 144.011Z" fill="#FFB61D"/>
<path fill-rule="evenodd" clip-rule="evenodd" d="M148.205 60.0384C147.877 59.3023 147.55 58.5661 147.198 57.8463C146.429 56.2732 144.351 55.7859 143.221 56.9102C142.553 57.575 141.89 58.2454 141.227 58.9157C139.78 60.379 138.332 61.8422 136.831 63.2471L136.618 63.4485C134.712 65.269 133.131 67.2979 132.072 69.7199C131.987 69.9144 132.004 70.1537 132.021 70.393C132.029 70.5038 132.037 70.6147 132.035 70.7211C132.15 70.7068 132.276 70.7051 132.403 70.7035C132.683 70.6999 132.962 70.6962 133.119 70.5557C133.415 70.2896 133.652 69.9597 133.891 69.6288C134.04 69.4211 134.19 69.2129 134.355 69.0198C136.09 66.9876 137.836 64.9637 139.594 62.9514C139.676 62.8577 139.822 62.8202 139.969 62.7827C140.037 62.7653 140.105 62.7478 140.166 62.7247C140.162 62.7981 140.163 62.8728 140.163 62.9475V62.9476C140.165 63.1095 140.166 63.2714 140.123 63.4205C140.012 63.8056 139.884 64.1876 139.756 64.5693C139.516 65.2856 139.277 66.0012 139.147 66.7367C138.802 68.6867 138.552 70.6597 138.411 72.6337C138.389 72.9327 138.806 73.2909 139.184 73.584L139.438 73.7784C139.505 73.8301 140.162 73.396 140.237 73.1065C140.415 72.415 140.553 71.7129 140.691 71.0109C140.829 70.309 140.966 69.6071 141.145 68.9157C141.231 68.5829 141.315 68.2498 141.4 67.9168L141.4 67.9167C142.114 65.102 142.826 62.2955 144.406 59.7544C145.157 58.5468 145.582 58.9462 146.016 59.7183L146.667 60.8857C147.476 62.3472 148.275 63.8186 149.081 65.3028C149.779 66.5894 150.482 67.8855 151.203 69.1931C151.499 69.8284 151.804 70.4529 152.107 71.0723L152.107 71.0726L152.107 71.0727C152.926 72.7478 153.726 74.3861 154.283 76.1035C154.973 78.2345 155.718 80.5986 155.443 82.7318C155.077 85.5766 152.797 91.8102 152.797 91.8102C150.16 100.678 137.37 117.548 132.044 120.831C127.158 123.844 121.866 125.782 116.045 126.009C112.777 126.137 110 124.87 107.315 123.224L106.932 122.986C104.77 121.629 103.368 119.911 103.167 117.252C103.013 115.211 102.818 113.172 102.623 111.133L102.623 111.133C102.301 107.762 101.979 104.392 101.842 101.014C101.694 97.3638 101.953 93.6622 102.412 90.0318C102.82 86.7972 103.52 83.5923 104.248 80.4037L104.561 79.0381C106.246 71.7046 110.26 65.7849 115.896 60.9036C117.915 59.1542 119.626 59.4426 120.928 61.7828C121.482 62.779 122.011 63.7894 122.539 64.7997L122.54 64.7999L122.54 64.7999L122.54 64.7999L122.54 64.8L122.54 64.8L122.54 64.8L122.54 64.8L122.54 64.8001L122.54 64.8001L122.54 64.8001L122.54 64.8002C123.08 65.8329 123.621 66.8656 124.188 67.8831C124.327 68.1322 124.603 68.3051 124.878 68.478C125.005 68.5578 125.132 68.6377 125.246 68.725C125.252 68.5877 125.274 68.4438 125.295 68.2998C125.341 67.9885 125.387 67.6772 125.28 67.4331L125.106 67.0367C124.224 65.0238 123.339 63.0063 122.312 61.0665C120.807 58.2253 117.978 56.8784 114.963 59.1479C111.16 62.011 108.099 65.5881 105.756 69.6576C104.556 71.7411 103.787 74.0879 103.025 76.4134L103.025 76.4135C102.868 76.8927 102.711 77.371 102.551 77.8459L102.399 78.3042C100.99 82.586 100.032 86.9825 99.7182 91.4906C99.6185 92.922 99.6561 94.364 99.6938 95.8045C99.7056 96.2575 99.7174 96.7104 99.7249 97.1628C99.7369 97.8773 99.7445 98.5923 99.7522 99.3072C99.7753 101.465 99.7985 103.624 99.9389 105.775C100.05 107.482 100.225 109.185 100.4 110.888C100.607 112.902 100.813 114.917 100.915 116.937L100.927 117.131C101.358 123.509 107.039 127.032 111.864 128.22C116.046 129.25 120.539 129.01 124.842 127.354C129.748 125.814 133.773 122.896 137.568 119.801C142.475 115.799 154.843 95.1707 156.97 87.8198C158.239 83.4374 158.023 79.3172 156.323 75.1277C154.813 71.4078 152.833 67.9979 150.595 64.6737C149.63 63.2416 148.918 61.6402 148.205 60.0385L148.205 60.0384L148.205 60.0384ZM100.252 170.819L100.252 170.819C100.119 168.087 99.9866 165.344 100.224 162.639C100.653 157.733 101.808 152.962 104.047 148.493C104.956 146.678 105.703 144.752 106.278 142.804C107.001 140.352 108.539 138.478 110.088 136.591C110.358 136.262 110.629 135.932 110.895 135.599C112.125 134.062 113.299 132.473 114.39 130.834C114.934 130.016 115.167 129.898 115.72 130.813C118.021 134.615 123.298 135.466 127.062 133.088C133.221 129.197 138.525 124.301 143.828 119.404L144.175 119.085C146.667 116.785 148.89 114.174 150.014 110.839C150.137 110.473 150.416 110.131 150.699 109.856C150.902 109.659 151.15 109.509 151.398 109.359C151.507 109.294 151.615 109.228 151.72 109.159C151.712 109.277 151.709 109.397 151.706 109.516C151.7 109.773 151.694 110.031 151.633 110.274C150.672 114.067 148.452 117.122 145.763 119.829C142.513 123.099 139.254 126.378 135.771 129.39C133.245 131.574 130.408 133.422 127.588 135.232C126.664 135.826 125.486 136.068 124.357 136.3L124.354 136.301L124.351 136.302L124.351 136.302C124.204 136.332 124.057 136.362 123.912 136.393C123.038 136.578 122.771 136.965 122.741 137.817C122.731 138.1 122.728 138.386 122.725 138.672C122.708 140.256 122.69 141.859 121.497 143.145C120.982 143.7 120.327 144.154 119.667 144.533C119.473 144.643 118.888 144.434 118.741 144.205C117.299 141.962 116.622 139.571 118.805 137.426C119.597 136.647 118.71 136.258 118.476 136.186C117.283 135.821 116.628 134.938 115.966 134.045L115.966 134.044L115.966 134.044C115.827 133.856 115.687 133.668 115.542 133.484C115.395 133.298 114.715 133.223 114.637 133.339C113.932 134.372 113.184 135.378 112.436 136.384L112.436 136.384L112.435 136.384C110.522 138.956 108.608 141.529 107.429 144.569C107.128 145.346 106.823 146.121 106.519 146.897L106.519 146.898L106.518 146.899C105.605 149.227 104.692 151.555 103.862 153.912C102.038 159.098 101.665 164.467 102.032 169.919C102.082 170.663 102.134 171.407 102.186 172.151C102.409 175.325 102.632 178.501 102.677 181.679C102.734 185.766 102.571 189.861 102.37 193.947C102.277 195.831 102.096 197.71 101.914 199.59C101.801 200.769 101.687 201.948 101.595 203.128C101.224 207.887 102.006 212.543 102.841 217.204C103.171 219.048 103.358 220.919 103.545 222.789C103.596 223.3 103.647 223.812 103.701 224.323C104.278 229.785 104.776 235.278 104.076 240.739C103.955 241.683 103.883 242.642 103.811 243.603C103.583 246.639 103.353 249.695 101.572 252.381C100.975 253.28 100.272 254.177 99.4296 254.832C99.025 255.147 98.6711 255.374 98.3466 255.582C97.2029 256.317 96.4247 256.818 95.0756 260.066C93.6548 263.486 95.23 264.691 96.2416 265.465C96.4631 265.635 96.6576 265.784 96.7877 265.93C96.4625 266.526 94.7415 266.404 94.0913 265.93C92.0318 264.431 92.0318 261.703 92.9026 259.271C93.8596 256.597 95.1265 254.321 97.7232 253.314C100.292 252.317 101.092 250.154 101.448 247.881C102.066 243.936 102.642 239.943 102.69 235.964C102.73 232.648 102.347 229.32 101.966 226.005C101.895 225.39 101.825 224.776 101.757 224.163C101.233 219.423 100.686 214.679 99.9012 209.978C99.3459 206.65 99.5801 203.353 99.8141 200.058C99.8899 198.99 99.9658 197.923 100.015 196.855C100.155 193.79 100.396 190.731 100.638 187.671C100.794 185.688 100.95 183.705 101.079 181.721C101.132 180.913 101.088 180.099 101.042 179.24C101.017 178.78 100.991 178.307 100.98 177.816C100.9 177.123 100.802 176.452 100.706 175.794C100.537 174.628 100.373 173.503 100.324 172.373C100.302 171.856 100.277 171.338 100.252 170.819ZM120.255 142.523C121.07 141.751 121.069 140.777 121.068 139.8C121.067 139.038 121.067 138.274 121.455 137.604C121.515 137.5 121.237 137.031 121.077 137.007C120.832 136.971 120.422 137.101 120.311 137.293C120.004 137.821 119.74 138.374 119.477 138.927L119.477 138.927L119.477 138.927L119.477 138.928L119.477 138.928L119.477 138.928L119.477 138.928L119.476 138.928L119.476 138.928L119.476 138.928L119.476 138.928L119.476 138.929L119.476 138.929C119.356 139.181 119.236 139.433 119.112 139.683C118.456 141.002 118.978 141.933 120.255 142.523ZM165.586 253.437C166.238 251.983 166.77 250.384 166.912 248.81C167.272 244.801 167.549 240.769 167.55 236.746C167.551 233.527 167.394 230.308 167.237 227.089L167.237 227.087C167.166 225.635 167.096 224.183 167.039 222.731C167.01 221.972 166.989 221.212 166.968 220.453V220.453C166.952 219.91 166.937 219.367 166.919 218.824C166.654 210.913 164.234 203.641 160.223 196.891C159.823 196.216 158.527 195.61 157.742 195.711C155.225 196.033 152.837 195.591 150.42 195.144L150.419 195.143C149.991 195.064 149.561 194.985 149.13 194.909C145.368 194.252 141.745 193.219 138.444 191.355C135.696 189.804 133.08 188.011 130.471 186.223L130.471 186.223C130.23 186.058 129.989 185.893 129.748 185.728C127.786 184.386 125.846 182.984 124.066 181.415C123.034 180.506 122.488 181.008 122.096 181.775C120.386 185.128 118.781 188.549 118.308 192.331C117.63 197.75 116.967 203.175 116.496 208.615C116.019 214.133 115.67 219.662 115.321 225.191L115.321 225.194C115.253 226.268 115.185 227.341 115.117 228.415C114.862 232.4 114.668 236.388 114.488 240.377C114.346 243.524 114.566 246.596 115.145 249.752C115.843 253.564 115.924 257.692 114.271 261.342C112.798 264.596 110.034 266.733 106.317 267.134C104.181 267.364 102.643 265.062 103.801 263.223C104.398 262.275 105.358 261.545 106.303 260.827L106.303 260.827C106.563 260.629 106.823 260.432 107.073 260.231C107.228 260.106 107.532 260.166 107.835 260.225C107.975 260.252 108.115 260.279 108.24 260.289C108.194 260.4 108.154 260.517 108.115 260.634C108.027 260.892 107.939 261.15 107.782 261.356C107.615 261.577 107.41 261.778 107.206 261.977C106.878 262.298 106.554 262.616 106.397 263.005C106.189 263.52 106.284 264.349 106.59 264.809C106.78 265.095 107.77 265.192 108.136 264.959C110.465 263.473 112.478 261.713 112.894 258.718C112.959 258.243 113.109 257.77 113.258 257.3C113.47 256.633 113.68 255.972 113.645 255.317C113.531 253.19 113.297 251.069 113.063 248.948C112.95 247.921 112.837 246.893 112.737 245.865L112.721 245.705C112.602 244.477 112.483 243.245 112.472 242.014C112.435 237.962 112.414 233.909 112.46 229.858L112.468 229.196C112.534 223.325 112.6 217.454 112.792 211.587C112.876 209.019 113.156 206.455 113.435 203.896C113.478 203.506 113.52 203.116 113.562 202.727C113.875 199.817 114.213 196.907 114.668 194.018C115.439 189.119 116.808 184.403 119.384 180.11C119.799 179.419 119.652 178.229 117.82 178.394C116.886 178.478 115.227 178.803 113.773 179.088C112.376 179.361 111.168 179.598 110.972 179.549C111.164 179.223 114.925 177.534 116.645 177.39C120.817 177.041 124.147 179.097 127.406 181.413C127.679 181.607 127.952 181.802 128.225 181.996C132.425 184.988 136.638 187.989 141.587 189.707C145.068 190.915 148.598 191.908 152.309 192.138C153.016 192.182 153.72 192.295 154.423 192.408C154.902 192.485 155.381 192.562 155.862 192.618C156.043 192.638 156.233 192.574 156.424 192.509C156.511 192.479 156.599 192.449 156.686 192.428C156.648 192.359 156.612 192.288 156.576 192.217C156.498 192.061 156.42 191.905 156.311 191.773C155.971 191.359 155.619 190.949 155.24 190.571C147.27 182.623 141.052 171.71 141.105 171.276C141.27 171.385 142.108 172.475 143.136 173.811C144.357 175.4 145.847 177.338 146.795 178.394C150.809 182.862 154.972 187.199 159.166 191.5C163.963 196.418 166.897 202.296 168.389 208.927C169.155 212.326 169.751 215.743 169.513 219.285C169.34 221.861 169.308 224.447 169.276 227.033C169.262 228.112 169.249 229.191 169.225 230.269L169.204 231.2L169.185 232.065C169.123 234.86 169.06 237.655 169.024 240.451L169.024 240.515C169.017 241.274 168.972 246.394 167.55 251.449C166.427 255.443 164.275 259.407 163.429 260.964C163.262 261.271 163.147 261.485 163.099 261.587C162.496 262.885 162.539 263.728 163.702 263.876C164.689 264.002 165.942 263.862 166.262 262.284L166.279 262.198C166.363 261.782 166.451 261.342 166.672 261.002C166.801 260.802 167.04 260.674 167.278 260.545L167.279 260.545C167.384 260.488 167.49 260.431 167.586 260.368C167.611 260.429 167.557 260.645 167.481 260.945C167.207 262.041 166.65 264.267 168.565 264.291C170.509 264.316 170.402 263.208 170.335 262.513C170.324 262.401 170.315 262.3 170.315 262.216V262.197C170.315 261.591 170.315 260.695 170.822 260.612C171.95 260.428 172.002 261.518 172.04 262.304L172.041 262.311C172.05 262.506 172.045 262.702 172.039 262.895C172.017 263.71 171.995 264.473 173.099 264.947C174.313 265.468 175.213 265.116 175.996 264.32C176.824 263.478 176.588 262.564 175.812 261.783C174.224 260.188 174.288 258.088 174.372 256.152C174.542 252.25 174.859 248.353 175.176 244.457L175.176 244.456L175.176 244.454C175.261 243.415 175.345 242.376 175.427 241.336C175.543 239.863 175.682 238.391 175.821 236.918L175.821 236.917C175.945 235.598 176.07 234.278 176.178 232.958C176.34 230.977 176.491 228.995 176.643 227.013C176.819 224.7 176.996 222.387 177.189 220.076C177.248 219.377 177.344 218.679 177.44 217.982C177.583 216.942 177.726 215.902 177.744 214.859C177.771 213.292 177.7 211.724 177.628 210.155C177.587 209.261 177.547 208.368 177.524 207.475C177.506 206.735 177.508 205.995 177.511 205.255V205.254C177.514 204.209 177.518 203.164 177.462 202.121C177.411 201.18 177.38 200.233 177.35 199.286L177.35 199.286C177.263 196.61 177.176 193.93 176.638 191.347C176.238 189.43 174.864 185.831 173.909 183.329C173.362 181.897 172.953 180.825 172.942 180.632C173.337 180.949 176.269 185.659 177.206 187.757L177.224 187.798C178.119 189.801 178.165 189.905 180.117 189.056C183.898 187.409 187.825 186.31 191.919 185.821C192.201 185.787 192.49 185.816 192.779 185.844C193.029 185.869 193.279 185.893 193.525 185.878C193.795 185.861 194.06 185.778 194.326 185.694C194.444 185.657 194.563 185.62 194.682 185.588C194.6 185.487 194.523 185.376 194.447 185.265C194.282 185.025 194.116 184.784 193.89 184.638C193.217 184.205 192.529 183.794 191.841 183.384L191.84 183.384L191.84 183.384L191.84 183.384L191.84 183.384L191.839 183.383L191.839 183.383L191.839 183.383L191.838 183.383L191.838 183.383L191.838 183.382L191.838 183.382C191.156 182.976 190.474 182.57 189.808 182.141C188.446 181.264 187.608 180.677 186.47 179.879L186.47 179.879L186.47 179.878C186.198 179.688 185.91 179.485 185.593 179.264C185.375 179.112 184.539 178.249 184.406 177.976C184.691 177.889 193.345 180.782 196.136 184.275C198.561 187.312 200.841 190.471 203.067 193.659C205.853 197.65 208.548 201.705 211.224 205.77C211.429 206.081 211.634 206.393 211.84 206.704L211.854 206.727C214.056 210.068 216.26 213.412 218.303 216.849L218.527 217.227C220.324 220.249 222.144 223.31 223.416 226.562C225.202 231.126 226.709 235.82 226.8 240.852C226.824 242.212 227.025 243.568 227.226 244.925C227.392 246.039 227.557 247.154 227.625 248.274C227.786 250.932 227.177 253.489 226.228 255.995C226.044 256.479 226.283 257.136 226.51 257.759C226.578 257.946 226.645 258.13 226.699 258.305C226.733 258.416 227.267 258.444 227.548 258.394C228.554 258.216 228.767 257.517 228.875 256.578C228.965 255.803 229.291 255.046 229.609 254.308L229.611 254.303C229.65 254.212 229.689 254.12 229.728 254.029C229.805 253.85 230.317 253.667 230.474 253.756C230.687 253.877 230.851 254.257 230.859 254.531C230.868 254.81 230.839 255.093 230.81 255.376V255.376V255.376V255.376V255.376V255.376V255.376V255.376V255.377V255.377V255.377L230.81 255.377C230.767 255.8 230.723 256.219 230.808 256.614C230.95 257.276 231.335 257.93 231.767 258.462C231.923 258.653 232.838 258.574 232.873 258.457C233.012 257.997 233.044 257.503 233.076 257.011C233.085 256.881 233.094 256.751 233.104 256.621C233.11 256.549 233.095 256.475 233.08 256.401L233.08 256.401C233.064 256.322 233.048 256.244 233.057 256.168C233.128 255.584 233.209 255.001 233.289 254.418C233.317 254.216 233.345 254.014 233.373 253.812C233.493 253.955 233.614 254.098 233.735 254.241L233.736 254.242C234.162 254.745 234.587 255.248 235.004 255.757C235.031 255.79 235.03 255.848 235.029 255.905C235.029 255.963 235.028 256.019 235.056 256.048C235.19 256.178 235.32 256.317 235.45 256.457C235.823 256.856 236.198 257.258 236.659 257.455C236.894 257.555 237.808 256.829 237.869 256.401C237.966 255.728 237.834 254.763 237.397 254.315C235.372 252.238 234.039 249.774 233.419 247.02C233.107 245.635 232.99 244.208 232.872 242.78V242.779C232.797 241.863 232.721 240.946 232.594 240.038L232.42 238.794C231.814 234.452 231.208 230.108 230.463 225.789C229.907 222.568 229.266 219.362 228.625 216.156L228.624 216.151C228.301 214.538 227.978 212.924 227.666 211.309C227.622 211.08 227.657 210.83 227.691 210.59L227.703 210.506C228.346 205.819 227.458 201.252 226.378 196.757L226.19 195.971C224.813 190.231 223.43 184.469 221.519 178.899C220.378 175.571 218.836 172.382 217.294 169.192L217.294 169.191C216.619 167.796 215.944 166.4 215.303 164.993C215.062 164.464 214.827 163.933 214.592 163.401L214.592 163.4C214 162.062 213.408 160.724 212.725 159.434L212.521 159.049L212.521 159.049C210.988 156.152 209.451 153.248 207.706 150.479C205.533 147.031 202.902 143.875 199.443 141.672C196.648 139.891 193.643 138.392 190.606 137.051C187.252 135.571 183.834 134.234 180.417 132.897L180.416 132.897C179.387 132.494 178.358 132.092 177.331 131.685C176.642 131.412 175.94 131.169 175.238 130.926L175.238 130.926C174.431 130.646 173.624 130.366 172.835 130.041C172.596 129.943 172.429 129.665 172.263 129.388L172.263 129.388C172.187 129.26 172.11 129.133 172.027 129.023C172.149 129.02 172.273 129.009 172.397 128.998C172.664 128.973 172.931 128.949 173.175 129.013C179.76 130.753 185.981 133.44 192.207 136.128L192.207 136.128C193.164 136.542 194.121 136.955 195.08 137.365C199.916 139.433 204.03 142.366 207.189 146.513C209.162 149.102 211.066 151.825 212.476 154.742C214.029 157.957 216.679 159.704 219.613 161.066C223.053 162.662 226.688 163.938 230.592 163.606C232.792 163.419 234.979 163.054 237.162 162.69L237.162 162.69L237.564 162.623L237.953 162.558C240.527 162.132 243.808 163.624 243.252 166.425C242.901 168.19 241.61 169.065 240.122 169.463C239.572 169.611 239.021 169.765 238.47 169.92C235.092 170.867 231.687 171.822 228.124 171.206C226.387 170.906 224.683 170.418 222.978 169.93L222.978 169.93C222.153 169.693 221.328 169.457 220.499 169.242C220.269 169.182 220.028 169.162 219.787 169.141C219.676 169.132 219.564 169.122 219.454 169.109C219.485 169.195 219.513 169.283 219.541 169.37C219.602 169.558 219.662 169.745 219.747 169.921C222.967 176.586 225.374 183.521 226.81 190.794C227.098 192.253 227.434 193.703 227.771 195.152L227.771 195.153L227.771 195.154L227.771 195.154L227.771 195.155L227.771 195.155L227.772 195.156L227.772 195.157L227.772 195.157L227.772 195.158L227.772 195.158L227.772 195.159L227.772 195.159L227.772 195.159L227.772 195.159L227.772 195.16L227.773 195.16L227.773 195.16L227.773 195.16L227.773 195.16L227.773 195.16L227.773 195.16L227.773 195.161C228.193 196.972 228.614 198.784 228.939 200.613C229.221 202.192 229.364 203.795 229.508 205.398L229.508 205.399C229.587 206.288 229.667 207.178 229.77 208.064C229.823 208.52 229.875 208.975 229.927 209.431L229.928 209.44L229.928 209.441L229.928 209.442L229.928 209.442L229.928 209.443L229.928 209.444L229.928 209.444L229.928 209.445L229.928 209.446L229.928 209.446L229.929 209.447L229.929 209.447C230.157 211.459 230.386 213.473 230.722 215.467C231.103 217.733 231.516 219.994 231.929 222.255C232.529 225.536 233.129 228.817 233.63 232.114C233.955 234.243 234.134 236.394 234.313 238.546L234.313 238.547L234.313 238.548L234.314 238.549L234.314 238.55L234.314 238.551L234.314 238.552L234.314 238.553L234.314 238.554L234.314 238.555L234.314 238.556L234.314 238.557C234.436 240.022 234.559 241.489 234.727 242.948C235.179 246.868 236.027 250.649 238.963 253.612C240.047 254.705 240.179 256.624 239.414 257.921C238.575 259.343 237.253 259.828 235.442 259.415C235.081 259.333 234.634 259.233 234.328 259.37C232.76 260.066 231.255 260.625 229.769 259.15C229.649 259.03 228.941 259.397 228.579 259.644C226.167 261.283 224.101 259.661 223.996 257.145C223.958 256.237 224.146 255.269 224.455 254.408C225.696 250.945 225.67 247.403 225.314 243.819C225.231 242.992 225.174 242.16 225.118 241.329V241.329V241.329V241.328V241.328V241.328V241.328V241.328V241.328V241.328V241.327V241.327C225.017 239.854 224.916 238.382 224.674 236.933C223.64 230.746 221.323 225.016 217.966 219.735C213.342 212.461 208.655 205.226 203.927 198.02C202.923 196.49 201.849 195.006 200.774 193.523L200.774 193.523L200.774 193.523L200.773 193.523L200.773 193.523L200.773 193.522L200.773 193.522L200.773 193.522L200.773 193.522L200.773 193.522L200.773 193.522L200.773 193.522L200.772 193.521C199.909 192.33 199.046 191.139 198.22 189.924C197.003 188.134 195.237 188.315 193.616 188.481H193.616H193.616C193.352 188.508 193.091 188.535 192.837 188.552C189.887 188.757 187.139 189.769 184.389 190.781C183.113 191.251 181.837 191.721 180.54 192.11C178.743 192.65 178.894 193.693 179.051 194.777C179.083 194.998 179.116 195.221 179.132 195.441C179.202 196.403 179.307 197.362 179.411 198.32L179.411 198.321L179.411 198.321L179.411 198.321L179.412 198.321L179.412 198.322L179.412 198.322L179.412 198.322L179.412 198.323L179.412 198.323L179.412 198.323L179.412 198.323L179.412 198.324L179.412 198.324L179.412 198.324L179.412 198.325L179.412 198.325L179.412 198.325L179.412 198.325L179.412 198.326L179.412 198.326L179.412 198.326L179.412 198.326C179.54 199.5 179.669 200.674 179.733 201.852L179.793 202.943C180.021 207.088 180.25 211.236 180.286 215.385C180.299 216.886 180.113 218.389 179.927 219.893C179.819 220.771 179.71 221.651 179.641 222.531C179.471 224.695 179.317 226.86 179.163 229.025L179.163 229.025C178.954 231.96 178.744 234.894 178.497 237.826C178.404 238.919 178.32 240.015 178.236 241.111C177.944 244.918 177.652 248.728 177.004 252.475C176.397 255.986 177.058 259.069 178.329 262.216C179.054 264.009 177.287 266.511 175.214 266.532C175.02 266.533 174.817 266.547 174.61 266.561C173.559 266.632 172.411 266.71 171.87 265.286C171.825 265.168 171.071 265.111 170.949 265.265C170.293 266.091 169.487 266.003 168.683 265.915H168.683H168.683H168.683H168.682H168.682H168.682H168.682H168.682H168.682H168.682H168.682C168.393 265.883 168.106 265.852 167.825 265.863C167.54 265.874 167.252 265.866 166.964 265.859H166.964C166.442 265.846 165.922 265.834 165.421 265.929C163.853 266.226 162.52 265.745 161.565 264.618C160.632 263.517 160.888 262.21 161.727 260.948C162.012 260.412 162.298 259.881 162.582 259.354L162.583 259.35C163.648 257.371 164.689 255.436 165.586 253.437ZM241.633 166.309C241.525 166.153 241.426 165.966 241.327 165.779C241.108 165.369 240.889 164.958 240.576 164.864C239.519 164.547 238.311 164.275 237.26 164.479C233.023 165.302 228.822 166.104 224.571 164.61C224.214 164.485 223.856 164.363 223.498 164.24C220.673 163.272 217.85 162.306 215.71 160.012C215.627 159.922 215.487 159.885 215.348 159.848C215.283 159.831 215.218 159.813 215.159 159.791C215.153 159.885 215.135 159.984 215.118 160.084C215.079 160.299 215.041 160.515 215.12 160.671C215.95 162.33 216.796 163.983 217.719 165.591C217.957 166.006 218.435 166.4 218.888 166.556C219.531 166.777 220.174 167.005 220.816 167.234L220.817 167.235L220.817 167.235C222.915 167.982 225.017 168.731 227.177 169.207C230.62 169.965 234.111 169.329 237.461 168.442C237.733 168.37 238.021 168.314 238.316 168.257C239.52 168.022 240.834 167.766 241.633 166.309ZM114.708 105.202C112.413 106.339 110.069 106.948 107.663 106.447C106.896 106.287 105.97 105.297 105.731 104.502C105.125 102.489 104.741 100.405 104.36 98.3288L104.359 98.3282L104.359 98.3275L104.359 98.3268L104.359 98.3262L104.359 98.3255L104.359 98.3248C104.315 98.0877 104.272 97.8507 104.228 97.6139C103.9 95.844 104.97 94.7463 106.447 94.2917C109.62 93.3153 112.851 92.8313 115.988 94.5341C119.632 96.5124 119.243 101.869 116.912 103.53C116.347 103.932 115.799 104.357 115.208 104.815L115.208 104.815L115.208 104.816L115.208 104.816L115.207 104.816L115.207 104.816C115.044 104.942 114.878 105.071 114.708 105.202ZM115.384 96.9282C115.338 96.878 115.294 96.8149 115.249 96.7517C115.152 96.6144 115.055 96.4771 114.952 96.473C114.5 96.4551 114.045 96.4832 113.591 96.5113H113.591H113.591H113.591H113.591H113.591H113.591H113.59H113.59H113.59C113.424 96.5216 113.257 96.5319 113.09 96.54C113.155 96.6705 113.223 96.8 113.291 96.9295C113.442 97.2186 113.593 97.5078 113.715 97.8086C113.911 98.2924 114.084 98.7856 114.257 99.2788L114.257 99.2789L114.257 99.279L114.257 99.279L114.257 99.2791L114.257 99.2792L114.257 99.2793L114.257 99.2794L114.257 99.2794L114.257 99.2795C114.314 99.4405 114.37 99.6015 114.427 99.7622C114.496 99.9548 114.56 100.149 114.623 100.343L114.623 100.344C114.652 100.432 114.681 100.52 114.71 100.608C114.797 100.561 114.888 100.52 114.979 100.479C115.176 100.39 115.374 100.301 115.522 100.16C116.576 99.1577 116.163 98.1226 115.384 96.9282ZM160.33 205.581L160.299 205.152L160.25 204.479C160.2 204.295 160.134 204.162 160.077 204.049C160.03 203.955 159.989 203.875 159.971 203.79C159.832 203.145 159.7 202.498 159.569 201.852L159.569 201.851L159.569 201.851L159.569 201.85L159.568 201.85L159.568 201.85L159.568 201.849L159.568 201.849L159.568 201.848C159.281 200.437 158.994 199.025 158.631 197.633C158.611 197.556 158.595 197.462 158.579 197.362C158.495 196.843 158.38 196.134 157.382 196.465C156.359 196.805 156.45 197.3 156.614 198.198L156.639 198.333C157.258 201.769 157.693 205.244 158.07 208.717C158.36 211.376 158.505 214.053 158.628 216.726C158.673 217.7 158.737 218.676 158.801 219.653L158.801 219.653C158.982 222.427 159.163 225.205 158.915 227.941C158.607 231.337 156.517 234.032 153.512 235.838C150.656 237.554 147.938 239.359 146.807 242.776C146.108 244.886 146.789 246.384 148.741 246.441C149.101 246.452 149.467 246.284 149.832 246.116C149.999 246.039 150.167 245.961 150.334 245.902C150.208 245.762 150.09 245.601 149.972 245.441C149.709 245.085 149.447 244.728 149.101 244.603C148.168 244.266 148.102 244.038 148.476 243.064C149.248 241.056 150.429 239.541 152.282 238.47C155.234 236.764 157.838 234.613 159.445 231.568C161.414 227.837 162.335 223.847 161.73 219.577C161.366 217.01 161.097 214.427 160.841 211.846C160.637 209.794 160.487 207.737 160.33 205.581ZM172.346 146.059C171.436 140.859 170.549 135.812 169.586 130.781C168.931 127.359 166.525 125.261 163.856 123.326C163.541 123.098 163.224 122.871 162.905 122.644L162.905 122.644C161.096 121.352 159.261 120.042 157.833 118.402C155.349 115.55 151.217 108.739 151.419 105.185C151.553 102.817 152.383 100.062 152.383 100.062C152.383 100.062 151.982 104.96 152.383 106.455C153.795 111.719 157.651 115.89 161.206 118.685C162.024 119.328 162.87 119.94 163.716 120.552L163.716 120.552L163.717 120.553L163.717 120.553L163.717 120.553L163.717 120.553L163.718 120.553L163.718 120.553C165.386 121.76 167.052 122.965 168.493 124.4C169.889 125.789 171.013 127.614 171.304 129.835C171.471 131.106 171.676 132.364 171.882 133.626C172.298 136.174 172.717 138.741 172.825 141.469C172.949 144.6 174.637 149.156 175.441 151.327C175.698 152.022 175.865 152.472 175.861 152.553C175.57 152.444 173.411 148.681 172.625 146.908C172.525 146.681 172.434 146.449 172.346 146.059ZM146.015 76.849C142.712 75.2534 139.372 73.736 135.881 72.1866C134.221 71.7767 132.653 71.3684 131.106 70.9656C130.592 70.8318 130.081 70.6987 129.569 70.5662C125.926 69.6235 122.252 69.7254 118.669 70.689C117.028 71.1303 115.46 71.8533 113.897 72.574L113.897 72.574L113.897 72.574L113.897 72.5741L113.897 72.5741L113.897 72.5741L113.897 72.5741C113.423 72.793 112.949 73.0116 112.473 73.2221C112.316 73.2917 112.246 73.5587 112.176 73.8257C112.144 73.9495 112.111 74.0733 112.07 74.1774C112.179 74.1998 112.289 74.2289 112.399 74.258L112.399 74.2581C112.654 74.3257 112.908 74.3934 113.158 74.3771C113.326 74.3661 113.485 74.2659 113.647 74.1642C113.749 74.0995 113.853 74.0342 113.961 73.9907C117.061 72.7385 120.287 71.9787 123.622 71.8865C128.847 71.7419 133.804 73.0366 138.588 75.0356C139.699 75.5 140.798 75.9955 141.896 76.491C143.013 76.9948 144.13 77.4986 145.26 77.9697C145.581 78.1034 145.963 78.0898 146.345 78.0762C146.521 78.07 146.697 78.0638 146.867 78.0719C146.779 77.9395 146.7 77.7873 146.621 77.635L146.621 77.6349L146.621 77.6349C146.452 77.3063 146.282 76.9777 146.015 76.849ZM127.975 87.5846C127.647 86.4184 128.929 86.4017 130.021 86.5338C132.262 86.8051 134.526 86.894 136.789 86.9828H136.789C137.719 87.0193 138.649 87.0558 139.578 87.105C139.791 87.1163 140.092 87.1037 140.399 87.0908L140.399 87.0908H140.399H140.399H140.399H140.399C141.077 87.0624 141.782 87.0328 141.632 87.2574C138.373 92.1327 129.254 92.1327 127.975 87.5846ZM107.73 108.995C107.228 111.917 107.926 113.789 111.123 114.518C112.262 114.777 113.673 114.069 114.468 113.625C115.703 112.937 116.894 112.17 118.085 111.404L118.087 111.403L118.087 111.403L118.087 111.402L118.087 111.402C118.486 111.146 118.885 110.889 119.285 110.636C119.247 111.01 120.339 113.55 121.073 114.007C121.579 113.642 121.783 113.279 121.997 112.897C122.065 112.775 122.134 112.652 122.215 112.525C122.335 112.337 122.386 112.106 122.438 111.874C122.464 111.755 122.49 111.637 122.526 111.523C122.644 111.146 122.679 110.729 122.714 110.311C122.804 109.232 122.894 108.151 124.422 107.768C124.485 107.752 124.564 107.742 124.649 107.731C125.027 107.682 125.523 107.618 125.328 106.951C125.09 106.135 124.421 106.352 124.116 106.463C122.812 106.937 121.537 107.514 120.303 108.153C118.854 108.903 117.416 109.674 115.977 110.445L115.977 110.445L115.977 110.445L115.976 110.445L115.976 110.445L115.975 110.446L115.975 110.446C114.633 111.165 113.292 111.884 111.941 112.586C110.596 113.286 109.582 112.394 108.706 111.297C108.069 110.5 108.218 109.045 108.308 108.173C108.343 107.838 108.368 107.589 108.337 107.495C108.02 107.809 107.792 108.637 107.73 108.995ZM119.355 110.591L119.285 110.636C119.287 110.617 119.292 110.604 119.299 110.596C119.311 110.585 119.33 110.583 119.355 110.591ZM119.355 110.591C119.666 110.395 119.977 110.2 120.291 110.009C120.591 109.825 120.942 109.723 121.292 109.62L121.292 109.62L121.292 109.62L121.292 109.62L121.292 109.62C121.453 109.573 121.614 109.525 121.771 109.47C121.685 109.711 121.632 110.053 121.574 110.418C121.476 111.043 121.367 111.735 121.073 112.097C121.011 112.173 120.636 111.789 120.244 111.39C119.883 111.021 119.508 110.638 119.355 110.591ZM165.235 232.309V232.309C165.256 231.688 165.274 231.123 165.364 230.57C165.401 230.337 165.579 230.127 165.757 229.916C165.837 229.821 165.918 229.725 165.986 229.627C166.054 229.724 166.142 229.822 166.229 229.92C166.418 230.129 166.607 230.339 166.599 230.542C166.425 234.935 166.209 239.392 164.115 243.335C163.296 244.877 161.566 246.068 160.008 247.022C159.333 247.435 157.795 247.17 157.088 246.634C155.948 245.769 155.846 244.24 156.545 242.988C157.033 242.114 157.875 241.397 158.681 240.764C158.863 240.621 159.224 240.704 159.585 240.788C159.75 240.826 159.915 240.864 160.063 240.88C159.996 240.983 159.931 241.088 159.867 241.193C159.725 241.425 159.582 241.657 159.409 241.863C159.237 242.067 159.043 242.258 158.85 242.449C158.487 242.808 158.126 243.165 157.915 243.598C157.688 244.063 157.697 245.008 158.005 245.277C158.383 245.608 159.302 245.705 159.778 245.474C162.738 244.035 163.737 241.292 164.285 238.298C164.59 236.631 164.891 234.964 165.202 233.136C165.217 232.848 165.226 232.573 165.235 232.309ZM107.719 89.7568C110.221 90.061 114.818 86.8689 114.818 86.1809C114.818 85.4928 108.58 84.7836 106.091 84.544C104.948 84.434 104.275 84.7668 104.183 85.9185C104.051 87.5717 105.892 89.5347 107.719 89.7568ZM153.586 246.968C150.754 245.149 151.317 243.312 154.028 240.609C154.343 240.295 154.762 239.985 155.179 239.902C155.484 239.842 155.815 239.916 156.146 239.99L156.146 239.99C156.291 240.022 156.436 240.054 156.578 240.075C156.519 240.167 156.463 240.261 156.406 240.355C156.282 240.561 156.159 240.767 156.005 240.948C155.243 241.846 154.474 242.74 153.677 243.607C152.811 244.55 153.52 244.938 154.251 245.311C154.346 245.359 154.466 245.376 154.582 245.393C154.735 245.414 154.881 245.435 154.958 245.524C155.188 245.787 155.369 246.091 155.551 246.395C155.625 246.518 155.699 246.641 155.775 246.761C155.66 246.796 155.544 246.834 155.429 246.872C155.162 246.96 154.894 247.048 154.62 247.09C154.31 247.138 153.982 247.07 153.586 246.968ZM103.99 259.567C103.342 259.625 102.694 259.682 101.962 259.816C101.576 260.132 101.174 260.423 100.778 260.71C99.8798 261.361 99.0136 261.989 98.4504 262.821C97.9227 263.602 98.0223 265.114 98.3967 266.084C98.6002 266.611 99.5939 266.894 100.405 267.125C100.514 267.156 100.621 267.186 100.721 267.216C101.155 267.345 101.758 267.199 102.182 266.978C102.49 266.818 102.737 266.543 102.985 266.268C103.093 266.147 103.202 266.027 103.315 265.916C103.169 265.86 103.003 265.775 102.837 265.69C102.477 265.506 102.116 265.321 101.961 265.43C101.127 266.014 100.848 265.443 100.625 264.987C100.564 264.86 100.506 264.743 100.442 264.661C100.224 264.38 100.361 263.547 100.641 263.212C101.007 262.774 101.445 262.397 101.884 262.021C102.212 261.739 102.54 261.456 102.84 261.148C103.15 260.827 103.4 260.449 103.65 260.07C103.762 259.901 103.874 259.731 103.992 259.567L103.99 259.567Z" fill="#00160A"/>
<path fill-rule="evenodd" clip-rule="evenodd" d="M35.6072 99.0571C31.724 99.6972 29.2199 103.839 30.0142 108.307C30.4797 110.926 31.9748 113.268 33.9145 114.822L34.4525 123.609C34.5049 124.453 35.4001 125.196 35.9537 124.848L39.4122 122.508L43.8383 126.132C44.5469 126.74 45.23 126.176 44.9839 125.18L42.4594 115.1C43.8742 113.415 44.5421 110.654 44.0765 107.534C43.2822 102.212 39.4904 98.417 35.6072 99.0571ZM38.4833 116.784C39.4107 116.835 40.2593 116.653 41.0032 116.27L42.6788 122.817L39.5004 120.311C39.1879 120.072 38.8402 120.039 38.5961 120.222L36.1123 121.999L35.7551 116.023C36.6329 116.463 37.5555 116.733 38.4833 116.784ZM35.9665 101.273C38.8789 100.873 41.7228 103.72 42.3184 107.631C42.9141 111.543 41.0361 114.649 38.1237 114.569C37.099 114.54 36.0828 114.155 35.17 113.521C35.1218 113.48 35.0711 113.444 35.0184 113.413C33.4088 112.267 32.1461 110.367 31.7717 108.211C31.176 104.779 33.0541 101.673 35.9665 101.273Z" fill="#FFB61D"/>
<path fill-rule="evenodd" clip-rule="evenodd" d="M275.24 167.324C279.124 167.964 281.628 172.105 280.833 176.574C280.368 179.193 278.873 181.534 276.933 183.089L276.395 191.875C276.343 192.719 275.448 193.462 274.894 193.115L271.435 190.775L267.009 194.399C266.301 195.006 265.618 194.442 265.864 193.447L268.388 183.366C266.973 181.681 266.306 178.921 266.771 175.801C267.565 170.479 271.357 166.684 275.24 167.324ZM272.364 185.051C271.437 185.102 270.588 184.919 269.844 184.537L268.168 191.083L271.347 188.577C271.659 188.339 272.007 188.306 272.251 188.488L274.735 190.265L275.092 184.289C274.214 184.73 273.292 185 272.364 185.051ZM274.881 169.54C271.968 169.14 269.124 171.986 268.529 175.898C267.933 179.809 269.811 182.915 272.723 182.835C273.748 182.807 274.764 182.421 275.677 181.787C275.725 181.747 275.776 181.711 275.829 181.68C277.438 180.533 278.701 178.634 279.075 176.477C279.671 173.046 277.793 169.94 274.881 169.54Z" fill="#FFB61D"/>
</svg>
