<svg width="320" height="320" viewBox="0 0 320 320" fill="none" xmlns="http://www.w3.org/2000/svg">
<rect width="320" height="320" fill="none"/>
<path d="M219.965 67.3145C217.425 60.5336 214.776 53.4587 196.836 58.244C187.203 60.8136 179.128 69.892 172.527 83.3739C167.56 94.0959 163.364 107.961 160.017 124.585C153.176 158.553 150.295 202.495 151.642 245.217L148.657 245.311L148.617 244.022C147.706 213.172 148.985 181.747 152.36 153.885C138.003 138.963 121.639 127.202 109.714 123.296C81.4564 117.065 73.9911 133.527 74.1763 148.211C74.2101 150.896 75.1485 153.13 76.0938 155.379C77.0712 157.706 78.0561 160.05 78.0561 162.929C78.0561 164.839 73.7855 168.784 68.234 173.911C57.3201 183.993 41.4558 198.646 43.3598 211.399C45.1195 223.184 56.2784 232.132 66.5497 236.943C67.5553 237.414 68.6505 238.289 69.9683 239.342C70.9055 240.091 71.9553 240.93 73.1655 241.777L73.2585 241.842C74.2091 242.497 75.7781 243.42 77.9654 244.613L78.6402 244.979C109.584 261.672 145.497 250.426 156.688 246.275L157.342 246.03L236.7 245.147L236.69 245.085C236.668 244.955 236.633 244.763 236.587 244.515C235.841 240.472 232.338 221.482 239.798 213.829C263.096 189.931 288.644 121.537 253.909 92.8765C246.233 86.5429 238.616 82.6926 232.766 79.7356C229.213 77.9396 226.312 76.4732 224.446 74.98C222.147 73.1412 221.067 70.2555 219.965 67.3145Z" fill="#00C671"/>
<path fill-rule="evenodd" clip-rule="evenodd" d="M79.4249 143.865C77.6761 143.561 80.7669 147.029 80.7669 147.029C80.7669 147.029 81.1738 144.169 79.4249 143.865Z" fill="white"/>
<path fill-rule="evenodd" clip-rule="evenodd" d="M105.582 245.413C105.582 245.413 86.7969 237.553 86.7969 226.611C86.7969 223.4 88.8049 223.709 92.821 227.535C93.2579 227.952 93.8836 228.591 94.6982 229.452C95.1973 229.98 83.9231 216.29 89.604 213.729C95.1416 211.233 96.4297 224.193 96.7191 224.014C97.0409 223.815 96.9468 219.894 98.2285 218.16C98.9189 217.226 100.949 217.026 102.486 218.16C110.557 224.115 105.582 245.413 105.582 245.413Z" fill="white"/>
<path fill-rule="evenodd" clip-rule="evenodd" d="M97.5095 165.138C97.5095 165.138 89.6954 164.737 88.6302 162.252C87.5651 159.768 93.3597 161.18 93.3597 161.18L97.5095 165.138Z" fill="white"/>
<path fill-rule="evenodd" clip-rule="evenodd" d="M84.2939 153.359C82.5444 152.38 83.5393 150.046 84.2939 149.949C86.5273 149.661 88.2897 154.611 88.5359 155.106C88.9622 155.964 85.1814 153.856 84.2939 153.359Z" fill="white"/>
<path fill-rule="evenodd" clip-rule="evenodd" d="M102.28 168.362C102.28 168.362 98.0019 157.454 101.963 158.314C105.923 159.173 104.784 171.854 104.784 171.854L102.28 168.362Z" fill="white"/>
<path fill-rule="evenodd" clip-rule="evenodd" d="M99.4093 160.417C99.4653 162.186 100.221 164.9 101.673 168.601C101.693 168.651 101.719 168.699 101.75 168.743L104.254 172.235C104.607 172.728 105.383 172.516 105.437 171.912L105.482 171.39C106.186 162.935 105.17 158.34 102.103 157.674C100.318 157.287 99.3441 158.354 99.4093 160.417ZM101.892 158.969C103.797 159.457 104.683 162.993 104.296 169.629L104.272 170.015L102.861 168.046L102.614 167.406C101.395 164.203 100.764 161.848 100.717 160.375L100.714 160.17C100.711 159.054 101.017 158.777 101.826 158.953L101.892 158.969Z" fill="#00160A"/>
<path fill-rule="evenodd" clip-rule="evenodd" d="M87.1719 213.068C84.416 214.31 84.6068 217.445 86.7106 221.714L86.8722 222.037C87.257 222.793 87.6961 223.575 88.1819 224.377L88.3492 224.65L88.3284 224.637C87.5416 224.113 86.8629 223.807 86.2789 223.717C84.7282 223.479 83.9375 224.622 83.9375 226.611C83.9375 234.269 90.4047 240.742 103.168 246.082C103.582 246.255 104.052 246.015 104.154 245.578C107.53 231.125 106.467 221.771 100.782 217.576C99.0379 216.289 96.5161 216.369 95.5112 217.729L95.424 217.852C94.9968 218.48 94.6988 219.306 94.4778 220.334L94.4681 220.38L94.4396 220.267C94.2824 219.652 94.1164 219.071 93.9284 218.49C93.3054 216.562 92.5603 215.049 91.6258 214.036C90.3956 212.703 88.8663 212.304 87.1719 213.068ZM93.4156 222.258L93.7341 223.76L93.771 223.916C93.7945 224.01 93.8158 224.086 93.8374 224.151C93.8665 224.237 93.8969 224.309 93.9451 224.385C94.0049 224.48 94.0792 224.563 94.1974 224.634C94.4276 224.773 94.7232 224.781 94.9668 224.631C95.2804 224.437 95.3571 224.27 95.4429 223.722L95.483 223.448C95.5114 223.245 95.6151 222.384 95.6326 222.248C95.7024 221.704 95.7719 221.255 95.8575 220.827C96.0583 219.823 96.3285 219.064 96.6781 218.591C97.1562 217.944 98.7687 217.893 99.9214 218.744L100.072 218.858C104.867 222.551 105.905 230.916 103.024 244.007L102.935 244.407L102.64 244.279C91.0869 239.24 85.3885 233.335 85.3885 226.611C85.3885 225.389 85.6019 225.081 86.0592 225.151C86.8686 225.275 88.2826 226.246 90.187 228.061L90.4303 228.296C90.7207 228.582 91.0773 228.945 91.4994 229.385L92.0617 229.976C92.0714 229.985 92.0858 229.998 92.1147 230.024L92.1239 230.046C92.1462 230.082 92.2175 230.095 92.6931 230.184L92.8588 230.125C93.0549 230.051 93.0861 230.002 93.2527 229.74L93.2907 229.581C93.3138 229.476 93.3105 229.452 93.2983 229.361L93.2667 229.232C93.2596 229.207 93.2544 229.194 93.2456 229.176L93.2383 229.16C93.2188 229.118 93.2077 229.097 93.1891 229.069L92.9918 228.803L92.4893 228.138C92.4029 228.022 92.3158 227.905 92.2195 227.774C91.3927 226.652 90.5909 225.492 89.8373 224.296C89.1314 223.175 88.5153 222.094 88.0123 221.073C86.2372 217.471 86.0956 215.145 87.7684 214.391C89.7817 213.483 91.3274 215.158 92.5484 218.936C92.8803 219.963 93.1431 220.997 93.4156 222.258Z" fill="#00160A"/>
<path fill-rule="evenodd" clip-rule="evenodd" d="M89.4212 155.506L90.017 156.048C97.4053 162.793 102.549 168.174 105.291 171.908C110.077 178.426 113.934 185.187 117.185 192.345C118.34 194.889 119.386 197.408 120.416 200.082L120.697 200.816C121.018 201.66 121.329 202.494 121.667 203.419L123.109 207.398C127.01 218.079 125.719 218.6 122.005 208.211L120.546 204.182C120.241 203.345 119.961 202.589 119.68 201.842L119.468 201.283C118.355 198.357 117.236 195.637 115.988 192.888C112.773 185.809 108.961 179.126 104.232 172.686L104.015 172.394C101.206 168.653 95.9901 163.246 88.5376 156.479C88.2688 156.235 88.2488 155.82 88.4928 155.551C88.7368 155.282 89.1525 155.262 89.4212 155.506ZM72.1277 140.609L81.3285 148.462C82.191 149.202 82.8633 149.782 83.1841 150.065C83.4564 150.305 83.4826 150.72 83.2426 150.992C83.0026 151.265 82.5872 151.291 82.3149 151.051L79.9205 148.987C76.7407 146.263 71.7206 141.991 71.2728 141.607C70.9971 141.371 70.9649 140.957 71.2009 140.681C71.437 140.405 71.8519 140.373 72.1277 140.609Z" fill="#00160A"/>
<path fill-rule="evenodd" clip-rule="evenodd" d="M89.1332 160.104C87.9253 160.378 87.5183 161.324 88.0269 162.51C88.8754 164.489 92.0208 165.511 97.4739 165.791C98.0798 165.822 98.3979 165.083 97.9589 164.665L93.8091 160.706C93.7261 160.627 93.6238 160.571 93.5124 160.544C91.4885 160.051 90.0482 159.896 89.1332 160.104ZM93.0328 161.774L95.7388 164.355L95.5761 164.339L95.1675 164.296C91.684 163.906 89.7026 163.098 89.2294 161.994L89.1802 161.876C89.0355 161.513 89.0876 161.456 89.4226 161.38C90.04 161.24 91.1958 161.35 92.8424 161.73L93.0328 161.774Z" fill="#00160A"/>
<path fill-rule="evenodd" clip-rule="evenodd" d="M85.2956 249.254C83.6482 250.202 84.3193 251.19 87.8719 252.766C91.7053 254.49 98.8397 257.818 111.094 258.755C130.074 260.208 147.355 257.468 169.172 257.468C199.374 257.468 212.632 264.104 223.203 262.574C251.54 258.471 257.96 250.508 249.506 248.454C240.225 246.198 210.725 246.474 200.794 245.825L197.721 245.628L195.081 245.562C166.497 244.86 120.68 245.562 111.732 245.562C93.4769 245.562 85.2956 249.254 85.2956 249.254Z" fill="white"/>
<path fill-rule="evenodd" clip-rule="evenodd" d="M169.172 257.468C199.375 257.468 212.632 264.333 223.203 262.803C251.541 258.7 257.96 250.509 249.506 248.454C240.225 246.198 206.509 245.466 198.207 245.645C198.207 245.645 236.374 252.698 234.332 255.033C228.25 261.988 213.108 253.584 185.607 253.829C179.941 253.88 169.172 257.468 169.172 257.468Z" fill="#E7EAEE"/>
<path fill-rule="evenodd" clip-rule="evenodd" d="M113.542 245.86C112.806 245.864 112.216 245.866 111.73 245.866L110.897 245.868C99.0293 245.923 90.3734 247.171 84.8926 249.644L84.8069 249.688C83.5268 250.425 83.0363 251.511 83.8407 252.626C84.3609 253.346 85.45 254.027 87.2882 254.855L88.8508 255.553C90.8006 256.417 91.9569 256.885 93.6931 257.496L93.8814 257.562C98.8896 259.311 104.447 260.506 111.018 261.008C115.687 261.366 120.445 261.488 125.66 261.416L127.486 261.384C130.916 261.313 133.837 261.193 139.174 260.906L148.4 260.395C157.191 259.92 162.554 259.729 168.886 259.724L169.17 259.724C180.502 259.724 189.759 260.586 200.027 262.267L200.918 262.416C202.465 262.685 210.974 264.184 213.324 264.521L213.405 264.533C217.505 265.11 220.538 265.225 223.341 264.819L224.125 264.704C236.853 262.802 246.051 259.969 250.696 256.835C255.336 253.703 254.916 250.115 249.889 248.824L249.735 248.786C245.56 247.771 237.635 247.207 225.32 246.838L222.795 246.767C222.059 246.747 221.298 246.727 220.498 246.708L209.778 246.46C205.649 246.358 203.118 246.27 201.201 246.153L197.782 245.934L195.104 245.866L192.382 245.805C184.488 245.64 175.059 245.561 164.268 245.554L161.059 245.554C153.539 245.559 145.755 245.596 137.065 245.661L113.542 245.86ZM166.777 247.509C177.548 247.528 186.888 247.622 194.611 247.807L197.694 247.884L201.2 248.108C203.129 248.223 205.655 248.31 209.72 248.411L220.047 248.649C221.264 248.679 222.389 248.708 223.468 248.738L225.997 248.812C237.736 249.176 245.367 249.733 249.274 250.682L249.508 250.741C252.748 251.592 252.855 253.023 249.604 255.217C245.158 258.217 226.908 266.254 214.011 263.514L213.418 263.43C210.692 263.025 201.556 260.976 201.018 260.886L199.694 260.67C189.805 259.077 180.779 258.242 169.898 258.207L168.316 258.207C161.809 258.224 156.205 258.441 146.683 258.968L140.075 259.336C133.684 259.685 130.637 259.809 126.661 259.881L126.341 259.887C106.176 260.67 93.8812 255.972 93.8812 255.972C92.2721 255.398 88.1083 253.951 88.1083 253.951L87.7984 253.81C78.0842 250.511 99.2933 247.874 110.914 247.82L114.536 247.806L135.58 247.624C145.377 247.548 154.002 247.507 162.345 247.506L166.777 247.509Z" fill="#00160A"/>
<path fill-rule="evenodd" clip-rule="evenodd" d="M211.592 231.774C211.592 231.774 211.54 234.667 212.431 236.006C213.322 237.345 215.805 241.069 218.115 242.049C218.827 242.351 221.544 242.389 223.176 243.343C226.455 245.259 227.185 248.71 223.176 249.441C215.216 250.893 212.431 246.697 212.431 246.697C212.431 246.697 209.152 242.049 205.866 238.967C202.579 235.884 199.961 234.956 199.961 234.956" fill="white"/>
<path d="M239.06 104.569C237.952 104.486 237.301 105.328 237.301 106.348C237.301 109.877 243.067 114.704 246.824 114.704C247.925 114.704 248.827 113.916 248.507 112.712C248.386 112.258 248.108 111.855 247.653 111.359L247.553 111.251C247.042 110.708 246.513 110.223 245.327 109.202L243.51 107.646C243.064 107.26 242.355 106.644 242.141 106.461L241.883 106.242C241.387 105.824 241.003 105.519 240.66 105.276C240.054 104.848 239.584 104.609 239.06 104.569Z" fill="white"/>
<path fill-rule="evenodd" clip-rule="evenodd" d="M202.224 173.767C202.224 173.767 200.04 167.536 194.43 165.849C192.647 165.313 200.445 177.083 193.562 181.473C191.413 182.844 187.593 183.555 182.892 184.224C161.937 187.207 155.619 179.388 142.683 175.569C137.496 174.038 112.266 167.265 108.452 201.767C106.064 223.363 124.149 230.056 140.356 233.487C172.824 240.362 222.574 237.652 238.09 214.995C256.586 187.988 228.159 164.468 224.154 161.982C223.184 161.38 225.965 169.098 226.274 173.002C226.583 176.906 224.154 178.325 224.154 178.325C224.154 178.325 223.197 174.192 214.732 173.483C206.267 172.774 202.224 173.767 202.224 173.767Z" fill="white"/>
<path fill-rule="evenodd" clip-rule="evenodd" d="M77.6804 145.015C77.977 145.714 78.6671 146.641 79.789 147.9C80.5298 148.731 81.9042 148.316 82.061 147.213C82.4193 144.695 81.6697 142.927 79.6478 142.576C78.0653 142.301 77.0433 143.513 77.6804 145.015ZM80.7659 147.029L80.5652 146.802C78.6773 144.648 78.2969 143.669 79.4239 143.865C80.5898 144.068 81.0371 145.122 80.7659 147.029Z" fill="#00160A"/>
<path fill-rule="evenodd" clip-rule="evenodd" d="M84.2092 149.3C83.4738 149.395 82.8743 150.258 82.7092 151.212C82.5192 152.308 82.9272 153.344 83.9733 153.93L84.6946 154.33C85.3904 154.711 86.0152 155.038 86.6231 155.33L86.9051 155.463C87.358 155.673 87.7245 155.819 88.0032 155.896C88.2884 155.974 88.5049 155.997 88.7358 155.912C89.2294 155.732 89.316 155.266 89.1454 154.869L89.0914 154.748C89.0232 154.589 88.8548 154.187 88.7579 153.963L88.7369 153.915C88.4728 153.311 88.2036 152.754 87.9071 152.223C86.8094 150.256 85.6289 149.117 84.2092 149.3ZM86.8995 153.108C87.0772 153.441 87.2467 153.79 87.4134 154.158L87.4683 154.282L87.3072 154.207L87.1897 154.151C86.411 153.777 85.5879 153.334 84.612 152.788C84.085 152.493 83.8974 152.017 83.9982 151.435C84.042 151.182 84.1412 150.937 84.2656 150.758C84.3036 150.703 84.3412 150.659 84.3748 150.627L84.4115 150.595L84.3761 150.598C85.0569 150.51 85.9144 151.337 86.7646 152.86L86.8995 153.108Z" fill="#00160A"/>
<path fill-rule="evenodd" clip-rule="evenodd" d="M95.3951 160.582C95.2788 160.076 88.7621 148.2 93.338 148.573C97.9139 148.946 96.8243 162.406 96.6651 162.406C96.4775 162.406 95.4787 160.946 95.3951 160.582Z" fill="white"/>
<path fill-rule="evenodd" clip-rule="evenodd" d="M91.0586 150.342C91.0588 151.478 91.4378 152.982 92.1178 154.81C92.3219 155.358 92.5506 155.928 92.802 156.52L92.9555 156.877C93.5594 158.269 94.7699 160.774 94.7594 160.729C94.8244 161.012 95.0964 161.484 95.4548 162.002L95.5864 162.191C96.0249 162.814 96.2432 163.039 96.613 163.058L96.769 163.062C97.213 163.086 97.2125 163.238 97.315 162.593L97.3522 162.357C97.3675 162.26 97.3833 162.134 97.399 161.983L97.4084 161.89C97.4495 161.471 97.4862 160.923 97.5113 160.324C97.576 158.777 97.5577 157.121 97.431 155.576L97.3965 155.183C96.9875 150.852 95.7989 148.117 93.393 147.921C91.8555 147.795 91.0584 148.757 91.0586 150.342ZM93.2867 149.225C94.8198 149.35 95.8049 151.752 96.1271 155.683C96.249 157.169 96.2667 158.773 96.2041 160.269L96.1825 160.714L96.1592 160.675C96.096 160.566 96.0524 160.484 96.0386 160.448L96.0345 160.436C96.0064 160.313 94.6938 157.596 94.1557 156.357C93.852 155.657 93.5803 154.988 93.344 154.353C92.7142 152.661 92.3671 151.283 92.3669 150.342C92.3668 149.484 92.5865 149.189 93.2175 149.22L93.2867 149.225Z" fill="#00160A"/>
<path fill-rule="evenodd" clip-rule="evenodd" d="M113.381 184.708C113.381 184.708 114.815 182.717 115.62 181.728C116.426 180.739 117.29 179.911 117.29 179.911C117.29 179.911 97.8304 177.975 91.0898 172.957C82.288 166.406 74.3925 155.54 66.4394 153.241C56.9316 150.494 53.4128 156.866 50.6704 157.386C42.3163 158.969 27.0157 163.473 34.0121 177.078C36.1721 181.279 43.1691 183.232 48.0985 180.89C53.6008 178.276 60.3769 171.874 67.5034 171.874C75.7444 171.874 77.1792 178.625 87.6406 182.205C94.0614 184.401 113.381 184.708 113.381 184.708Z" fill="white"/>
<path fill-rule="evenodd" clip-rule="evenodd" d="M136.551 232.851C136.551 232.851 141.301 238.037 143.27 241.373C145.238 244.709 144.549 246.519 147.281 248.061C151.387 250.377 155.618 249.793 157.501 248.561C159.384 247.329 157.618 244.176 153.671 244.176C152.7 244.176 151.558 241.947 151.005 240.472C150.452 238.997 150.705 235.368 150.705 235.368L136.551 232.851Z" fill="white"/>
<path fill-rule="evenodd" clip-rule="evenodd" d="M225.035 163.287C225.035 163.287 255.988 201.252 212.459 223.538C182.016 239.123 132 230.708 132 230.708C132 230.708 186.449 245.346 222.036 227.699C244.743 216.438 249.235 197.298 238.402 177.81C235.567 172.71 225.035 163.287 225.035 163.287Z" fill="#E7EAEE"/>
<path fill-rule="evenodd" clip-rule="evenodd" d="M223.218 161.394C223.608 160.878 224.216 160.871 224.669 161.153C226.13 162.06 228.774 164.255 231.317 166.83C234.847 170.405 237.998 174.455 240.414 178.82C247.03 190.773 246.439 203.286 238.043 215.547C230.621 226.384 216.101 232.925 195.719 235.855C177.893 238.417 157.255 238.063 140.154 234.442L139.297 234.258C129.51 232.121 122.295 229.407 116.837 225.213C109.677 219.711 106.338 212.013 107.482 201.66C109.215 185.988 115.411 177.279 124.75 174.228C128.222 173.094 131.941 172.815 135.779 173.193C138.41 173.453 140.62 173.942 142.96 174.633L143.375 174.757C145.917 175.528 148.08 176.379 151.416 177.857L153.882 178.962C158.992 181.253 161.95 182.339 165.778 183.111C170.595 184.082 175.899 184.196 182.334 183.317L183.289 183.181C188.541 182.415 191.361 181.72 193.038 180.65C195.001 179.398 195.702 177.369 195.421 174.559C195.293 173.28 194.976 171.932 194.475 170.36L194.337 169.936C194.12 169.294 193.489 167.489 193.372 167.097C193.228 166.611 193.162 166.273 193.186 165.958C193.245 165.169 193.937 164.681 194.711 164.914C198.804 166.145 201.743 169.72 203.549 175.515C203.709 176.03 203.422 176.577 202.907 176.737C202.393 176.897 201.845 176.61 201.685 176.095C200.311 171.684 198.304 168.814 195.676 167.413L195.503 167.323L196.214 169.396L196.234 169.455C198.038 177.148 196.697 183.181 184.563 185.045C183.895 185.148 170.477 186.302 164.906 184.924C156.466 182.835 144.488 175.041 137.307 174.757C130.126 174.474 128.547 175.041 125.356 176.083C116.796 178.88 109.676 187.938 108.239 202.898C107.48 210.798 111.747 218.802 118.744 223.733C136.551 236.281 177.845 236.879 195.442 234.349C215.336 231.49 230.237 224.736 237.285 214.444C245.232 202.839 244.986 191.111 238.706 179.766C236.383 175.568 233.34 171.657 229.928 168.202C228.374 166.628 226.785 165.206 225.496 164.168L225.278 163.995L225.467 164.739L226.072 167.061L226.292 167.931C226.326 168.068 226.36 168.203 226.392 168.335L226.507 168.812C226.915 170.528 227.163 171.859 227.248 172.925C227.481 175.87 226.628 178.01 224.647 179.168C224.182 179.44 223.584 179.283 223.312 178.818C223.04 178.352 223.197 177.754 223.662 177.483C224.92 176.748 225.481 175.339 225.302 173.079C225.227 172.134 224.993 170.882 224.605 169.252L224.496 168.799C224.448 168.604 224.399 168.406 224.347 168.198L223.496 164.912C223.37 164.414 223.275 164.023 223.198 163.682L223.176 163.581C223.046 162.989 222.978 162.566 222.974 162.246C222.971 161.92 223.017 161.66 223.218 161.394Z" fill="#00160A"/>
<path fill-rule="evenodd" clip-rule="evenodd" d="M202.146 172.692L202.844 172.574C207.447 171.815 211.163 171.54 214.002 171.755C216.998 171.982 220.173 172.792 223.529 174.181C223.972 174.364 224.182 174.871 223.999 175.314C223.816 175.757 223.308 175.967 222.866 175.784C219.672 174.462 216.674 173.697 213.871 173.485C211.054 173.272 207.24 173.575 202.441 174.401C201.968 174.483 201.52 174.166 201.438 173.694C201.357 173.222 201.674 172.773 202.146 172.692Z" fill="#00160A"/>
<path fill-rule="evenodd" clip-rule="evenodd" d="M207.693 168.799C209.771 168.373 211.669 168.593 213.362 169.468C214.983 170.305 216.387 171.358 217.572 172.626C217.82 172.892 217.806 173.308 217.541 173.555C217.275 173.803 216.86 173.789 216.612 173.524C215.531 172.367 214.248 171.405 212.759 170.636C211.342 169.904 209.75 169.719 207.958 170.087C207.602 170.16 207.255 169.931 207.182 169.575C207.109 169.22 207.338 168.872 207.693 168.799Z" fill="#00160A"/>
<path fill-rule="evenodd" clip-rule="evenodd" d="M211.898 165.357C212.084 165.046 212.488 164.944 212.799 165.131C214.466 166.127 215.846 167.243 216.936 168.478C218.037 169.725 218.941 171.319 219.652 173.257C219.777 173.597 219.602 173.975 219.261 174.1C218.92 174.225 218.542 174.05 218.417 173.709C217.76 171.917 216.936 170.465 215.95 169.348C214.954 168.219 213.68 167.189 212.125 166.259C211.813 166.072 211.712 165.669 211.898 165.357Z" fill="#00160A"/>
<path fill-rule="evenodd" clip-rule="evenodd" d="M192.853 180.976C193.128 180.583 193.669 180.488 194.061 180.763C194.454 181.038 186.078 192.965 186.078 195.28C186.078 197.789 187.311 199.469 190.595 202.118L191.986 203.224L192.391 203.549C194.426 205.193 195.612 206.347 196.62 207.812C198.028 209.86 198.691 212.145 198.522 214.856C198.314 218.2 197.305 220.511 195.306 223.178L195.125 223.416C194.9 223.706 193.911 224.97 193.64 225.34C192.673 226.661 192.217 227.655 192.134 228.823C191.77 233.968 194.19 240.179 199.447 247.436C199.728 247.824 199.641 248.366 199.253 248.648C198.865 248.929 198.323 248.842 198.042 248.454C192.568 240.898 190.005 234.321 190.404 228.7C190.51 227.21 191.053 225.974 192.11 224.494L192.24 224.315C192.551 223.89 193.686 222.442 193.782 222.317C195.686 219.819 198.439 216.164 196.235 209.208C195.125 205.706 184.587 203.224 184.24 195.77C184.158 194.014 187.086 189.208 192.853 180.976Z" fill="#00160A"/>
<path d="M196.043 217.041L194.832 217.054C187.665 217.146 183.306 217.507 181.96 218.084L181.911 218.106C179.93 219.014 178.373 220.245 177.182 221.721C176.258 222.867 175.605 224.096 175.177 225.322C175.05 225.688 174.951 226.029 174.878 226.34L174.828 226.561L176.901 229.217C176.922 229.244 176.94 229.271 176.958 229.299L176.978 229.328L177.043 229.423C177.491 230.073 177.999 230.708 178.653 231.448L178.955 231.783C179.492 232.369 181.201 234.212 181.782 234.876C183.025 236.295 184.072 237.66 185.074 239.227C186.602 241.617 187.95 244.376 189.159 247.717L189.247 247.961L189.333 248.212C189.439 248.521 189.543 248.839 189.655 249.197L190.166 250.873C190.92 253.342 191.447 254.476 192.282 255.163L192.422 255.276C193.517 256.128 194.537 256.339 197.374 256.429L198.203 256.452C201.974 256.555 203.941 253.561 201.783 251.385C201.107 250.702 198.875 250.173 195.224 249.952C194.746 249.922 195.195 248.69 195.224 248.212C195.254 247.734 195.665 247.37 196.143 247.399C196.566 247.424 196.972 247.454 197.361 247.487C192.527 240.48 190.167 234.509 190.542 229.217C190.648 227.727 190.488 227.143 191.545 225.663L191.747 225.386C192.133 224.872 193.127 223.603 193.217 223.486C194.031 222.418 194.598 221.543 195.053 220.588L195.143 220.396L195.173 220.327L195.223 220.216C195.462 219.668 195.716 218.724 195.974 217.401L196.043 217.041Z" fill="white"/>
<path fill-rule="evenodd" clip-rule="evenodd" d="M175.668 225.554C176.351 227.548 177.543 228.766 179.204 230.649L179.437 230.911C179.852 231.367 181.732 233.391 182.347 234.093C183.589 235.512 184.636 236.877 185.638 238.445C187.166 240.834 188.514 243.593 189.724 246.935C189.782 247.095 189.84 247.26 189.898 247.43L190.056 247.904C190.091 248.012 190.127 248.124 190.164 248.239L190.371 248.905C190.476 249.251 190.69 249.96 190.73 250.09L190.844 250.46C191.539 252.675 192.054 253.729 192.846 254.381L192.987 254.493C194.035 255.309 195.015 255.537 197.586 255.634L198.768 255.669C202.538 255.773 204.505 252.778 202.348 250.602C201.671 249.92 199.439 249.391 195.789 249.169C195.311 249.14 194.947 248.729 194.976 248.251C195.005 247.772 195.416 247.408 195.894 247.437L196.349 247.467C200.161 247.731 202.531 248.323 203.58 249.38C206.957 252.787 203.95 257.451 198.875 257.406L198.264 257.391C194.64 257.294 193.341 257.034 191.745 255.721C190.605 254.784 189.987 253.525 189.191 250.987L188.676 249.297L188.511 248.767C188.44 248.544 188.373 248.338 188.306 248.139L188.256 247.99C188.201 247.831 188.147 247.676 188.092 247.525C186.926 244.303 185.634 241.659 184.177 239.379C183.298 238.005 182.383 236.794 181.312 235.548L181.041 235.236C180.415 234.521 178.375 232.327 178.091 232.009C176.241 229.941 175.136 228.271 174.347 226.069L174.266 225.84C172.732 221.363 170.762 219.836 168.189 220.79C167.74 220.957 162.712 223.369 167.581 220.131C172.451 216.893 175.668 225.554 175.668 225.554Z" fill="#00160A"/>
<path fill-rule="evenodd" clip-rule="evenodd" d="M205.942 194.735C204.997 194.735 203.641 192.02 203.641 190.693C203.641 189.367 207.035 189.815 207.035 189.815C207.035 189.815 210.6 190.293 210.108 191.628C209.617 192.962 206.468 194.735 205.942 194.735Z" fill="#FFB61D"/>
<ellipse cx="200.353" cy="184.967" rx="1.8721" ry="3.49744" fill="#00160A"/>
<ellipse cx="218.255" cy="185.758" rx="2.05171" ry="3.44264" fill="#00160A"/>
<path fill-rule="evenodd" clip-rule="evenodd" d="M216.918 191.538C218.48 190.867 220.21 190.74 222.088 191.15C223.924 191.551 229.456 195.013 229.262 195.32C229.069 195.627 223.467 192.796 221.807 192.434C220.188 192.08 218.737 192.187 217.436 192.746C217.103 192.889 216.716 192.735 216.573 192.401C216.43 192.068 216.584 191.681 216.918 191.538Z" fill="#00160A"/>
<path fill-rule="evenodd" clip-rule="evenodd" d="M217.914 193.81C219.554 193.897 219.982 193.522 222.229 194.981C224.476 196.44 226.156 199.875 225.848 200.069C225.541 200.262 223.748 197.198 221.689 195.655C219.631 194.112 217.204 194.794 217.223 194.431C217.241 194.089 217.518 193.822 217.854 193.809L217.914 193.81Z" fill="#00160A"/>
<path fill-rule="evenodd" clip-rule="evenodd" d="M206.521 196.159C206.065 198.992 206.18 200.795 206.351 202.807C206.521 204.819 208.13 207.716 208.291 208.927C208.452 210.138 205.249 205.145 205.055 203.028C204.861 200.911 203.488 195.157 205.886 195.424C205.886 195.424 206.572 195.844 206.521 196.159Z" fill="#00160A"/>
<path fill-rule="evenodd" clip-rule="evenodd" d="M194.581 191.884C196.038 191.884 196.628 191.92 198.046 192.199C198.403 192.269 198.634 192.615 198.564 192.971C198.494 193.327 198.149 193.559 197.793 193.489C197.288 193.39 196.32 192.967 194.714 192.984C192.52 193.008 190.61 194.226 190.514 194.024C190.359 193.696 193.124 191.884 194.581 191.884Z" fill="#00160A"/>
<path fill-rule="evenodd" clip-rule="evenodd" d="M196.964 189.062C197.317 189.146 197.536 189.499 197.453 189.853C197.369 190.206 197.015 190.425 196.662 190.342C193.506 189.597 190.974 189.617 189.188 189.548C187.432 189.479 183.491 189.754 183.376 189.41C183.261 189.066 193.733 188.3 196.964 189.062Z" fill="#00160A"/>
<path fill-rule="evenodd" clip-rule="evenodd" d="M211.607 230.907C212.086 230.915 212.468 231.31 212.459 231.789C212.428 233.558 212.676 234.807 213.154 235.526C215.159 238.54 216.86 240.574 218.454 241.25C218.498 241.269 218.602 241.295 218.763 241.327L219.002 241.37C219.182 241.4 219.939 241.514 220.071 241.535C220.57 241.614 220.981 241.689 221.382 241.78C222.268 241.981 223.004 242.238 223.614 242.594C225.447 243.665 226.657 245.231 226.774 246.77C226.91 248.549 225.618 249.878 223.332 250.295C217.72 251.318 213.792 250.315 211.723 247.197C209.569 244.144 207.418 241.611 205.273 239.599C203.162 237.619 201.288 236.346 199.672 235.773C199.22 235.613 198.984 235.117 199.144 234.666C199.304 234.214 199.8 233.978 200.251 234.138C202.126 234.803 204.189 236.204 206.46 238.334C208.696 240.432 210.922 243.053 213.154 246.217C214.785 248.674 218.02 249.5 223.021 248.588C224.504 248.317 225.105 247.699 225.044 246.903C224.976 246.005 224.122 244.9 222.739 244.092C222.306 243.839 221.726 243.637 220.998 243.472C220.685 243.401 220.358 243.339 219.97 243.276L218.716 243.081L218.474 243.038C218.174 242.982 217.96 242.925 217.777 242.848C216.584 242.342 215.359 241.253 214.076 239.719C213.23 238.707 212.58 237.796 211.709 236.486C211 235.42 210.688 233.847 210.725 231.759C210.733 231.28 211.128 230.898 211.607 230.907Z" fill="#00160A"/>
<path fill-rule="evenodd" clip-rule="evenodd" d="M218.613 246.911C218.698 246.624 219 246.461 219.287 246.547C220.181 246.814 220.813 247.109 221.198 247.459C221.564 247.791 221.925 248.301 222.296 248.994C222.437 249.258 222.337 249.586 222.073 249.728C221.809 249.869 221.481 249.769 221.339 249.505C221.023 248.913 220.728 248.497 220.469 248.262C220.23 248.044 219.728 247.81 218.977 247.586C218.69 247.5 218.527 247.198 218.613 246.911Z" fill="#00160A"/>
<path fill-rule="evenodd" clip-rule="evenodd" d="M221.442 245.764C221.536 245.479 221.843 245.326 222.128 245.42C222.893 245.675 223.461 245.965 223.839 246.308C224.213 246.649 224.573 247.199 224.937 247.965C225.065 248.236 224.95 248.559 224.68 248.687C224.409 248.816 224.086 248.701 223.957 248.43C223.649 247.78 223.36 247.338 223.11 247.111C222.863 246.887 222.419 246.66 221.785 246.449C221.501 246.355 221.347 246.048 221.442 245.764Z" fill="#00160A"/>
<path fill-rule="evenodd" clip-rule="evenodd" d="M198.231 253.235C198.326 252.951 198.633 252.797 198.917 252.892C199.682 253.147 200.25 253.437 200.628 253.78C201.002 254.12 201.362 254.67 201.726 255.437C201.854 255.707 201.739 256.031 201.469 256.159C201.198 256.288 200.875 256.172 200.746 255.902C200.438 255.252 200.149 254.81 199.899 254.582C199.652 254.358 199.209 254.132 198.574 253.921C198.29 253.826 198.136 253.519 198.231 253.235Z" fill="#00160A"/>
<path fill-rule="evenodd" clip-rule="evenodd" d="M199.809 251.395C199.904 251.111 200.211 250.957 200.495 251.052C201.26 251.306 201.828 251.596 202.206 251.94C202.581 252.28 202.94 252.83 203.304 253.597C203.432 253.867 203.317 254.19 203.047 254.319C202.776 254.447 202.453 254.332 202.324 254.062C202.016 253.411 201.727 252.969 201.477 252.742C201.23 252.518 200.787 252.292 200.152 252.081C199.868 251.986 199.715 251.679 199.809 251.395Z" fill="#00160A"/>
<path fill-rule="evenodd" clip-rule="evenodd" d="M135.965 232.212C136.318 231.888 142.306 238.756 143.591 240.932C144.005 241.634 144.331 242.309 144.622 243.031C144.711 243.254 144.795 243.474 144.885 243.723L145.225 244.685C145.73 246.089 146.57 246.663 147.708 247.305C151.048 249.19 154.991 249.167 157.027 247.835C158.155 247.097 156.631 245.044 153.671 245.044C152.288 245.044 151.098 243.189 150.193 240.777C149.77 239.646 149.664 237.842 149.84 235.307C149.874 234.829 150.288 234.469 150.766 234.502C151.244 234.536 151.604 234.95 151.571 235.428C151.41 237.733 151.504 239.331 151.818 240.167L151.909 240.404C152.518 241.931 153.415 243.309 153.671 243.309C155.757 243.309 157.521 244.112 158.469 245.389C159.472 246.741 159.34 248.395 157.976 249.287C155.383 250.984 150.745 251.011 146.855 248.816C145.352 247.968 144.694 247.089 144.077 245.43L143.746 244.497C143.635 244.186 143.541 243.932 143.439 243.679C143.179 243.034 142.89 242.436 142.523 241.814C141.247 239.651 139.041 236.854 135.911 233.437C135.588 233.084 135.612 232.535 135.965 232.212Z" fill="#00160A"/>
<path fill-rule="evenodd" clip-rule="evenodd" d="M152.031 246.911C152.116 246.624 152.418 246.461 152.705 246.547C153.599 246.814 154.231 247.109 154.616 247.459C154.982 247.791 155.343 248.301 155.714 248.994C155.855 249.258 155.755 249.586 155.491 249.728C155.227 249.869 154.899 249.769 154.757 249.505C154.441 248.913 154.146 248.497 153.887 248.262C153.648 248.044 153.146 247.81 152.395 247.586C152.108 247.5 151.945 247.198 152.031 246.911Z" fill="#00160A"/>
<path fill-rule="evenodd" clip-rule="evenodd" d="M154.071 246.026C154.165 245.742 154.472 245.589 154.756 245.683C155.521 245.938 156.09 246.228 156.468 246.571C156.842 246.911 157.202 247.461 157.566 248.228C157.694 248.499 157.579 248.822 157.308 248.95C157.038 249.079 156.715 248.964 156.586 248.693C156.278 248.043 155.988 247.601 155.739 247.374C155.492 247.149 155.048 246.923 154.414 246.712C154.13 246.617 153.976 246.311 154.071 246.026Z" fill="#00160A"/>
<path fill-rule="evenodd" clip-rule="evenodd" d="M54.0667 154.27L53.8834 154.396C53.3029 154.802 52.185 155.617 51.9388 155.79L51.9136 155.808C51.2758 156.248 50.845 156.47 50.5083 156.534C44.5604 157.661 39.4236 158.922 35.9073 161.584C30.9906 165.307 28.3347 171.816 31.7035 178.367C34.1008 183.029 43.1634 184.195 48.4702 181.674C49.3781 181.243 50.3452 180.703 51.5121 179.989L51.9971 179.689C52.165 179.585 52.3376 179.476 52.5213 179.36L53.7919 178.55L55.181 177.66L55.6894 177.338C60.797 174.129 64.0421 172.742 67.5028 172.742C70.3634 172.742 72.3764 173.527 74.9054 175.382L75.096 175.524C75.5352 175.852 78.3851 178.125 79.3473 178.825C81.8407 180.641 84.3026 181.98 87.3591 183.025L87.6279 183.115C92.1011 184.562 100.657 185.374 113.367 185.576C113.651 185.58 113.919 185.446 114.085 185.215L114.58 184.531C115.292 183.555 115.863 182.802 116.292 182.276C116.807 181.644 117.34 181.064 117.889 180.538C118.424 180.025 118.112 179.121 117.375 179.048L116.61 178.97C104.205 177.68 95.8539 175.423 91.6072 172.262L91.2976 172.029C89.0327 170.317 86.8697 168.384 83.5726 165.221L79.3117 161.128C77.6271 159.523 77.035 159.001 75.8548 157.998L75.67 157.841C72.9108 155.501 70.5168 153.897 68.1947 152.94C67.6851 152.73 67.1804 152.553 66.6796 152.408C61.5087 150.914 57.7964 151.744 54.0667 154.27ZM66.1981 154.075C66.6366 154.201 67.0815 154.358 67.5337 154.544C69.5915 155.392 71.7695 156.835 74.2943 158.951L75.2823 159.79C76.3699 160.726 77.1228 161.426 79.6292 163.834L82.6015 166.693C85.9676 169.916 88.1724 171.868 90.5714 173.653L90.7122 173.757C95.0703 176.923 102.987 179.148 114.503 180.484L115.445 180.59L115.432 180.605C115.323 180.73 115.215 180.857 115.108 180.985L114.871 181.274L114.69 181.501C114.346 181.936 113.938 182.475 113.463 183.121L112.942 183.833L111.888 183.814C99.9329 183.571 91.9218 182.753 87.9209 181.384C85.1509 180.436 82.9078 179.238 80.6409 177.619L80.3687 177.423C79.4451 176.75 76.6064 174.486 76.1345 174.133C73.2388 171.97 70.854 171.006 67.5029 171.006C63.6181 171.006 60.1449 172.49 54.7754 175.864L53.9501 176.387L52.1805 177.521C51.6553 177.857 51.2402 178.118 50.8367 178.367L50.3885 178.642C49.3675 179.26 48.5148 179.732 47.7258 180.107C43.2272 182.244 36.7297 180.467 34.7831 176.682C31.8057 170.892 32.8533 166.637 37.108 163.416C40.3583 160.955 45.1258 159.319 50.8315 158.238C51.4287 158.125 52.0042 157.839 52.7551 157.334L52.898 157.237C53.1206 157.083 54.4706 156.097 54.9859 155.743L55.0397 155.706C58.3708 153.45 61.5653 152.736 66.1981 154.075Z" fill="#00160A"/>
<path fill-rule="evenodd" clip-rule="evenodd" d="M273.955 177.652L273.873 177.85L273.708 178.261C271.575 183.674 269.691 191.968 268.047 203.162L267.951 203.82L267.945 203.787C267.308 200.034 266.504 197.117 265.525 195.028C263.825 191.398 261.402 190.028 258.539 191.33C249.247 195.557 249.802 212.745 259.641 242.95C259.772 243.351 260.147 243.623 260.569 243.623H271.251C271.538 243.623 271.81 243.497 271.996 243.278C285.335 227.545 291.309 216.968 289.849 211.156L289.801 210.972C288.472 205.973 285.149 204.901 280.41 207.588L280.242 207.684L280.478 207.141C288.699 188.095 290.208 176.369 284.653 171.798C280.574 168.443 276.853 170.663 273.955 177.652ZM283.572 172.552C288.462 176.576 286.724 189.751 277.447 210.172C277.023 211.106 287.956 203.787 287.956 211.632L287.991 211.781C289.043 216.61 283.611 226.357 271.633 240.679L270.798 241.671L260.569 242.4C260.569 242.4 246.779 196.866 259.347 193.107C262.964 192.025 265.632 197.278 266.955 211.485C267.064 212.648 268.754 212.673 268.896 211.513L269.012 210.577C270.913 195.382 273.169 184.644 275.758 178.399L275.906 178.047C278.324 172.385 280.839 170.304 283.572 172.552Z" fill="#00160A"/>
<path d="M283.415 173.305C288.305 177.329 286.324 189.649 277.047 210.07C276.623 211.003 277.741 211.876 278.544 211.237L278.87 210.98C284.14 206.877 286.842 207.191 287.958 211.632L287.993 211.781C289.045 216.609 283.613 226.357 271.635 240.679L270.801 241.671H261.281L260.939 240.607C251.965 212.479 251.61 196.627 259.349 193.107C262.919 191.483 265.634 197.277 266.958 211.485C267.066 212.648 268.756 212.673 268.898 211.513L269.014 210.577C270.915 195.382 273.171 184.643 275.76 178.399L275.908 178.047C278.327 172.385 280.682 171.057 283.415 173.305Z" fill="white"/>
<ellipse cx="257.982" cy="205.551" rx="3.46996" ry="3.46998" fill="#E7EAEE"/>
<ellipse cx="279.673" cy="182.996" rx="3.46997" ry="3.46999" fill="#E7EAEE"/>
<circle cx="281.407" cy="216.394" r="3.46999" fill="#E7EAEE"/>
<path fill-rule="evenodd" clip-rule="evenodd" d="M97.4891 246.034C91.364 246.131 70.3005 247.691 69.9367 246.91C69.4712 245.91 92.4408 244.595 97.4476 244.516L99.0159 244.495C103.568 244.446 97.4891 246.034 97.4891 246.034ZM187.587 244.004C188.126 243.989 188.575 244.415 188.589 244.953C188.603 245.492 188.178 245.941 187.639 245.955L178.921 246.17C173.495 246.295 167.206 246.424 157.912 246.607C157.374 246.617 156.928 246.189 156.918 245.65C156.907 245.111 157.335 244.666 157.874 244.655L174.33 244.32C179.327 244.212 183.34 244.116 187.587 244.004ZM210.073 243.549C210.612 243.54 211.056 243.97 211.065 244.509C211.073 245.048 210.643 245.492 210.104 245.5L207.817 245.528L200.82 245.577C199.355 245.592 198.208 245.612 196.856 245.645C196.318 245.658 195.87 245.232 195.857 244.693C195.844 244.154 196.27 243.707 196.809 243.694L198.53 243.657C199.657 243.636 200.802 243.623 202.323 243.612L208.142 243.573C208.818 243.567 209.43 243.559 210.073 243.549ZM273.322 241.671C273.322 241.671 275.074 241.369 287.867 242.327C288.405 242.367 288.808 242.835 288.767 243.373C288.727 243.91 282.401 243.639 273.753 243.624L271.375 243.627C265.025 243.656 259.126 243.827 249.335 244.23L236.978 244.752C231.704 244.968 228.558 245.074 224.732 245.164C224.194 245.177 223.747 244.75 223.734 244.211C223.721 243.672 224.148 243.225 224.686 243.213L227.759 243.132C231.413 243.027 235.169 242.88 241.827 242.595L248.887 242.295C259.926 241.839 266.065 241.671 273.322 241.671Z" fill="#00160A"/>
<path d="M243.75 101.187L243.973 100.776C245.724 97.6065 247.248 96.0329 249.026 96.5463C249.17 96.5879 249.311 96.6447 249.449 96.7164C250.539 97.2811 250.8 98.3313 250.495 99.7643L250.475 99.8526L250.526 99.7789C251.042 99.0457 251.535 98.4794 252.045 98.0591L252.155 97.9713C253.29 97.088 254.493 97.0058 255.584 97.9261C257.324 99.3956 257.127 101.86 255.706 103.377L255.627 103.459C255.429 103.659 255.31 104.091 255.178 105.108L255.063 106C254.925 107.028 254.833 107.479 254.616 108.176C254.206 109.491 253.534 110.589 252.488 111.485C251.174 112.612 248.955 112.455 245.829 111.17C245.494 111.032 245.333 110.648 245.471 110.313C245.609 109.977 241.088 105.989 240.951 106.164L240.907 106.215C240.655 106.477 240.239 106.485 239.977 106.234L239.342 105.622C238.96 105.253 239.15 104.606 239.672 104.504C240.627 104.316 241.368 104.109 241.889 103.888C242.326 103.703 242.565 103.526 242.622 103.41C242.622 103.41 243.571 101.52 243.75 101.187Z" fill="white"/>
<path fill-rule="evenodd" clip-rule="evenodd" d="M239.06 104.569C237.952 104.486 237.301 105.328 237.301 106.348C237.301 109.877 243.067 114.704 246.824 114.704C247.925 114.704 248.827 113.916 248.507 112.712C248.386 112.258 248.108 111.855 247.653 111.359L247.553 111.251C247.042 110.708 246.513 110.223 245.327 109.202L243.51 107.646C243.064 107.26 242.355 106.644 242.141 106.461L241.883 106.242C241.387 105.824 241.003 105.519 240.66 105.276C240.054 104.848 239.585 104.609 239.06 104.569ZM238.615 106.348C238.615 104.968 240.592 106.876 242.971 108.917L244.552 110.27C246.487 111.938 248.849 113.674 247.653 113.801C243.864 114.204 238.615 109.179 238.615 106.348Z" fill="#00160A"/>
<path fill-rule="evenodd" clip-rule="evenodd" d="M239.364 95.3204C239.635 95.0796 240.992 94.1323 240.292 95.3763C239.591 96.6202 235.54 98.198 239.591 104.489C239.745 104.728 239.557 105.208 239.219 105.341C238.882 105.473 238.5 105.307 238.367 104.969C237.343 102.36 236.869 100.472 236.96 99.2443C237.056 97.9434 237.873 96.6421 239.364 95.3204Z" fill="#00160A"/>
<path fill-rule="evenodd" clip-rule="evenodd" d="M234.302 97.5105C234.374 97.1546 235.076 96.2739 235.076 96.9953C235.076 97.7167 234.044 99.5467 235.496 101.609C236.949 103.671 239.448 105.069 239.235 105.363C239.021 105.656 238.61 105.721 238.316 105.507C236.213 103.975 234.936 102.776 234.455 101.837C233.953 100.857 233.919 99.4224 234.302 97.5105Z" fill="#00160A"/>
<path fill-rule="evenodd" clip-rule="evenodd" d="M243.75 101.187L243.973 100.776C245.724 97.6065 247.248 96.0329 249.026 96.5463C249.17 96.5879 249.311 96.6447 249.449 96.7164C250.539 97.2811 250.8 98.3313 250.495 99.7643L250.475 99.8526L250.526 99.7789C251.042 99.0457 251.535 98.4794 252.045 98.0591L252.155 97.9713C253.29 97.088 254.493 97.0058 255.584 97.9261C257.324 99.3956 257.127 101.86 255.706 103.377L255.627 103.459C255.429 103.659 255.31 104.091 255.178 105.108L255.063 106C254.925 107.028 254.833 107.479 254.616 108.176C254.206 109.491 253.534 110.589 252.488 111.485C251.174 112.612 248.955 112.455 245.829 111.17C245.494 111.032 245.333 110.648 245.471 110.313C245.609 109.977 250.341 112.727 252.155 110.589C253.968 108.451 254.164 104.03 254.687 102.689L254.813 102.456C255.816 101.442 255.849 99.8708 254.736 98.9306C254.161 98.4454 253.64 98.481 252.962 99.0087C252.344 99.4893 251.701 100.315 250.959 101.516L250.742 101.874C250.376 102.49 249.645 103.767 249.548 103.929L249.414 104.15C248.964 104.886 248.39 105.347 248.305 105.367C248.22 105.386 248.099 105.318 248.069 104.696C248.059 104.491 248.111 104.285 248.22 104.005L248.263 103.896C248.395 103.576 249.121 102.067 249.171 101.959C249.391 101.484 249.569 101.07 249.715 100.679C250.306 99.1049 249.427 98.1853 248.844 97.8834C248.782 97.8511 248.721 97.8265 248.661 97.8092C247.758 97.5485 246.502 98.8886 245.035 101.574L244.718 102.168C244.483 102.616 244.253 103.077 243.801 103.992C243.472 104.658 242.595 105.135 241.132 105.52L241.052 105.541L241.059 105.56C241.123 105.762 241.088 105.989 240.951 106.164L240.907 106.215C240.655 106.477 240.239 106.485 239.977 106.234L239.342 105.622C238.96 105.253 239.15 104.606 239.672 104.504C240.627 104.316 241.368 104.109 241.889 103.888C242.326 103.703 242.565 103.526 242.622 103.41L243.236 102.175C243.425 101.801 243.571 101.52 243.75 101.187Z" fill="#00160A"/>
<ellipse cx="252.376" cy="103.198" rx="1.49334" ry="1.2243" fill="#FFB61D"/>
<ellipse cx="248.107" cy="99.7842" rx="1.49333" ry="1.22431" fill="#FFB61D"/>
<path fill-rule="evenodd" clip-rule="evenodd" d="M238.928 108.371C238.719 108.187 238.459 107.853 238.229 107.492L237.934 107.624L237.584 107.774C237.514 107.806 237.468 107.831 237.454 107.851C237.414 107.926 237.321 107.955 237.245 107.915C237.172 107.875 237.142 107.782 237.182 107.707C237.21 107.636 237.406 107.413 237.771 107.195C237.837 107.155 237.91 107.118 237.988 107.082C237.854 106.831 237.748 106.588 237.699 106.393C237.624 106.106 237.683 105.902 237.782 105.83C237.879 105.76 238.121 105.746 238.49 106.053C238.558 106.105 238.569 106.201 238.517 106.269C238.466 106.335 238.37 106.348 238.302 106.296C238.231 106.244 238.161 106.215 238.103 106.194L238.131 106.304C238.142 106.343 238.156 106.384 238.174 106.424C238.241 106.569 238.325 106.734 238.419 106.904C238.708 106.795 239.036 106.696 239.391 106.648C239.564 106.625 239.74 106.62 239.924 106.622C240.029 106.615 240.12 106.695 240.127 106.8C240.134 106.906 240.054 106.997 239.949 107.004C239.522 107.045 239.127 107.153 238.779 107.274L238.665 107.315C238.853 107.61 239.055 107.877 239.228 108.028C239.322 108.111 239.331 108.256 239.249 108.35C239.165 108.445 239.021 108.455 238.928 108.371Z" fill="#FFB61D"/>
<path fill-rule="evenodd" clip-rule="evenodd" d="M138.594 225.757C137.515 230.84 132.308 232.282 132.364 236.375C132.393 238.492 132.978 240.248 133.458 241.599C134.434 244.345 136.977 247.173 138.154 249.792C139.161 252.03 144.211 250.516 144.614 253.994C144.834 255.888 141.261 256.98 140.289 257.054C138.893 257.159 137.124 256.68 134.982 255.616C132.377 254.35 130.285 253.352 128.771 251.528C128.476 251.173 128.29 250.168 127.964 248.589C127.607 246.861 126.386 242.468 123.197 235.376C122.741 234.363 120.998 230.217 119.059 225.977C117.459 222.478 124.072 215.468 127.004 215.714C134.207 216.316 139.357 222.165 138.594 225.757Z" fill="white"/>
<path fill-rule="evenodd" clip-rule="evenodd" d="M133.542 255.691C131.749 254.623 130.275 253.393 129.118 252C128.823 251.644 128.606 250.334 128.279 248.755C128.108 247.927 121.883 232.993 119.83 227.371C119.447 226.322 120.377 227.057 120.595 227.371C121.787 229.088 129.118 240.412 132.621 250.903" fill="#E7EAEE"/>
<path fill-rule="evenodd" clip-rule="evenodd" d="M134.941 255.245L135.207 255.376C137.222 256.377 138.849 256.818 140.062 256.726C141.367 256.627 143.495 255.451 143.589 254.45C143.74 252.843 143.305 252.387 141.155 251.574C140.531 251.339 138.845 251.39 136.247 251.784C135.773 251.856 135.331 251.53 135.259 251.056C135.187 250.582 135.513 250.14 135.987 250.068L136.414 250.005C139.072 249.625 140.814 249.591 141.768 249.951L142.051 250.061C144.632 251.081 145.549 252.137 145.317 254.612C145.119 256.71 142.24 258.301 140.194 258.456C138.667 258.571 136.828 258.09 134.66 257.04L134.442 256.933C131.731 255.616 129.572 253.997 127.974 252.072C127.764 251.819 127.629 251.481 127.491 250.963L127.459 250.84C127.408 250.639 127.357 250.416 127.297 250.136L126.953 248.449L126.9 248.202C126.334 245.669 124.696 240.993 122.213 235.437L121.834 234.601C121.601 234.093 118.271 228.696 118.022 227.432C117.093 222.704 120.893 220.361 120.893 220.361C120.893 220.361 118.922 224.52 119.478 226.564C119.91 228.153 123.554 233.622 124.85 237.815C126.192 242.154 127.596 246.783 129.647 250.569C131.195 253.426 132.303 254.721 134.941 255.245Z" fill="#00160A"/>
<path fill-rule="evenodd" clip-rule="evenodd" d="M139.148 254.272C139.234 253.985 139.536 253.822 139.822 253.908C140.716 254.175 141.348 254.47 141.734 254.82C142.099 255.152 142.46 255.663 142.831 256.355C142.972 256.619 142.872 256.947 142.608 257.089C142.344 257.23 142.016 257.13 141.875 256.866C141.558 256.274 141.263 255.858 141.004 255.623C140.765 255.406 140.263 255.171 139.512 254.947C139.225 254.861 139.062 254.559 139.148 254.272Z" fill="#00160A"/>
<path fill-rule="evenodd" clip-rule="evenodd" d="M140.661 252.599C140.755 252.315 141.062 252.161 141.346 252.256C142.111 252.51 142.68 252.801 143.058 253.144C143.432 253.484 143.792 254.034 144.156 254.801C144.284 255.071 144.169 255.395 143.898 255.523C143.628 255.651 143.304 255.536 143.176 255.266C142.867 254.616 142.578 254.173 142.328 253.946C142.082 253.722 141.638 253.496 141.004 253.285C140.72 253.19 140.566 252.883 140.661 252.599Z" fill="#00160A"/>
<path fill-rule="evenodd" clip-rule="evenodd" d="M135.232 217.656C137.139 218.423 140.89 222.676 140.31 225.065C139.71 227.535 138.83 228.522 137.429 230.16L137.283 230.328C136.856 230.814 135.092 232.606 135.022 232.682L134.855 232.866C133.283 234.64 132.64 236.601 133.919 240.216C134.856 242.864 136.396 245.874 138.523 248.744C138.804 249.123 139.502 250.235 139.123 250.516C138.744 250.796 137.848 249.89 137.568 249.511C135.345 246.511 133.734 243.604 132.737 240.785C131.231 236.528 131.594 234.773 133.673 232.481L133.805 232.338C134.028 232.106 135.556 230.552 135.961 230.101L136.001 230.055C137.307 228.569 138.168 226.996 138.72 224.721C139.102 223.149 137.497 220.358 134.105 218.093C131.854 216.59 133.324 216.888 135.232 217.656Z" fill="#00160A"/>
</svg>
