<svg width="320" height="320" viewBox="0 0 320 320" fill="none" xmlns="http://www.w3.org/2000/svg">
<rect width="320" height="320" fill="none"/>
<path fill-rule="evenodd" clip-rule="evenodd" d="M91.3384 172.402C91.6469 173.892 91.3018 175.447 90.7374 176.859C90.8788 176.994 91.0202 177.129 91.1616 177.263C93.9857 175.065 96.854 172.82 98.9074 169.889C99.7724 168.654 98.7505 166.851 97.365 166.256C95.9796 165.661 94.4043 165.845 92.8979 165.781C91.0852 165.704 89.2895 165.248 87.6599 164.45C85.294 163.292 83.1228 161.382 80.4891 161.343C80.1983 161.339 79.887 161.366 79.6585 161.545C79.1014 161.984 79.4418 162.877 79.8602 163.449C81.9366 166.291 85.0494 168.357 88.4739 169.166C89.9541 169.516 91.0298 170.913 91.3384 172.402Z" fill="#26D07C"/>
<path fill-rule="evenodd" clip-rule="evenodd" d="M136.772 215.796L99.3317 224.152C91.6794 225.86 84.0915 221.041 82.3836 213.388C81.5604 209.7 82.2418 205.836 84.2769 202.651L104.934 170.327C111.294 160.376 113.423 148.299 110.851 136.773L102.495 99.3328C100.787 91.6805 105.606 84.0926 113.258 82.3848C116.946 81.5616 120.811 82.243 123.995 84.278L156.32 104.935C166.271 111.295 178.347 113.424 189.873 110.852L227.314 102.496C234.966 100.788 242.554 105.607 244.262 113.259C245.085 116.948 244.404 120.812 242.368 123.996L221.711 156.321C215.352 166.272 213.222 178.348 215.795 189.874L224.151 227.315C225.858 234.967 221.04 242.555 213.387 244.263C209.699 245.086 205.835 244.405 202.65 242.37L170.326 221.712C160.374 215.353 148.298 213.223 136.772 215.796Z" fill="#26D07C"/>
<path d="M268.456 201.22C268.456 201.22 100.667 201.308 34.2354 201.22C29.0212 189.853 35.5808 174.664 47.4306 170.667C43.7221 174.897 40.0136 179.128 36.3051 183.359C42.8208 183.293 268.456 183.359 268.456 183.359V201.22Z" fill="white"/>
<path fill-rule="evenodd" clip-rule="evenodd" d="M214.342 201.245C131.031 201.277 70.9962 201.269 34.2369 201.22C29.0227 189.853 156.873 194.639 205.353 194.639C253.833 194.639 231.404 201.238 214.342 201.245Z" fill="#E7EAEE"/>
<path fill-rule="evenodd" clip-rule="evenodd" d="M179.646 70.9083C180.238 70.2332 181.407 70.1833 182.054 70.8055C179.963 66.663 173.844 65.4212 172.529 60.9708C170.846 55.2737 168.364 49.8135 165.177 44.8001C163.851 49.729 161.318 54.3286 157.861 58.0842C156.962 58.0882 156.063 58.0923 155.163 58.0963C153.12 58.1055 151.059 58.1167 149.064 58.5559C145.474 59.3462 142.257 61.4869 138.62 62.0196C138.889 61.682 139.159 61.3444 139.428 61.0068C139.353 60.6584 138.848 60.499 138.587 60.7412C138.126 58.9087 136.642 57.4698 134.959 56.612C133.275 55.7542 130.793 54.1577 125.824 54.5777C131.853 61.3261 129.986 89.4205 131.469 94.7447C131.975 94.8797 132.362 94.3268 132.691 93.9196C133.02 93.5124 133.788 93.2623 133.966 93.7547C135.2 97.1778 135.376 102.445 139.161 104.485C139.892 104.878 140.326 104.143 140.269 103.785C140.197 103.327 140.747 102.975 141.205 103.044C141.663 103.114 142.029 103.445 142.386 103.74C148.407 108.712 158.266 106.149 164.294 111.112C165.485 112.093 166.535 113.371 168.021 113.783C168.908 114.03 169.854 113.933 170.76 113.77C176.156 112.803 180.96 109.601 184.708 105.601C188.456 101.6 191.254 96.8158 193.859 91.9924C191.458 90.6331 188.935 89.1514 187.631 86.7206C186.604 84.8053 185.972 82.0599 183.811 81.8258C184.496 84.0519 185.182 86.278 185.867 88.504C186.118 89.3192 186.372 90.1692 186.239 91.0117C186.107 91.8542 185.463 92.6818 184.611 92.7246C183.455 92.7826 182.641 91.4743 181.493 91.3254C181.275 95.631 179.622 99.8519 176.857 103.16C175.898 104.308 174.053 105.35 173.08 104.214C174.558 101.827 176.035 99.4396 177.513 97.0523C178.434 95.5646 179.379 94.008 179.548 92.2665C179.716 90.5249 178.853 88.5495 177.179 88.0417C177.104 87.5812 177.59 87.1858 178.056 87.172C178.522 87.1583 178.952 87.4051 179.352 87.644C180.843 88.5331 182.333 89.4222 183.824 90.3113C183.348 86.7767 182.376 83.3093 180.944 80.043C182.331 79.9116 183.75 80.1235 185.038 80.6548C184.046 77.7853 182.228 75.2069 179.857 73.3096C179.156 72.7484 179.054 71.5834 179.646 70.9083Z" fill="white"/>
<path fill-rule="evenodd" clip-rule="evenodd" d="M149.878 63.2913C151.106 64.1042 152.075 65.3027 152.612 66.6739C152.779 67.1003 153.254 67.306 153.574 67.6334C153.894 67.9608 153.947 68.6606 153.499 68.7521C153.302 68.7921 153.11 68.684 152.938 68.5813C150.184 66.9373 146.836 65.6099 143.832 66.7327C144.326 66.985 144.576 67.6323 144.379 68.1507C144.992 68.1729 145.563 68.4486 146.114 68.7189C146.599 68.9569 147.084 69.1949 147.569 69.433C147.518 69.5762 147.468 69.7194 147.417 69.8626C145.224 68.7459 142.545 68.6298 140.264 69.5525C141.022 69.6677 141.794 69.6888 142.558 69.6151C143.671 70.1761 144.784 70.7371 145.897 71.2981C146.145 71.4229 146.406 71.5601 146.545 71.7999C146.685 72.0397 146.632 72.4114 146.373 72.5103C144.361 70.7364 141.516 69.952 138.88 70.4447C138.572 70.5022 138.362 70.0731 138.493 69.7887C138.623 69.5042 138.936 69.3583 139.227 69.2436C140.689 68.6683 142.23 68.2961 143.792 68.1412C143.011 67.4165 142.105 66.8257 141.127 66.4019C140.966 65.851 141.761 65.323 142.206 65.6849C145.591 65.0215 149.217 65.6798 152.152 67.4908C152.177 66.915 151.75 66.4308 151.35 66.0154C150.101 64.7169 148.852 63.4185 147.603 62.1201C149.79 62.3972 151.934 63.013 153.935 63.9388C154.387 64.1481 154.834 64.3742 155.244 64.658C156.788 65.7267 157.706 67.6382 157.576 69.5112C156.641 67.5348 155.161 65.8197 153.343 64.6056C152.304 63.9116 151.125 63.3713 149.878 63.2913V63.2913Z" fill="#E7EAEE"/>
<path fill-rule="evenodd" clip-rule="evenodd" d="M70.3729 156.702C67.2057 159.545 67.4822 164.575 68.6254 168.674C70.096 173.948 72.583 178.937 75.9097 183.285L36.3051 183.683L47.4306 170.991C35.5808 174.988 29.0212 190.177 34.2354 201.544C100.667 201.632 167.099 201.496 233.53 201.136C221.413 209.325 209.667 219.259 204.037 232.756C198.406 246.253 200.738 263.998 212.707 272.401C217.165 275.53 222.519 277.134 227.871 278.148C233.389 279.193 240.072 279.237 243.478 274.771C245.468 272.162 244.517 268.07 243.576 264.022C242.92 261.199 242.269 258.397 242.625 256.137C243.831 248.472 248.991 244.585 254.879 240.15C256.116 239.218 257.385 238.263 258.656 237.242C269.51 228.531 281.953 217.517 285.12 203.965C288.014 191.586 284.829 179.307 276.554 169.656C273.575 166.182 269.912 163.019 266.231 159.841L266.231 159.841C261.284 155.57 256.304 151.27 252.903 146.145C250.827 143.015 250.099 139.669 249.335 136.158C249.06 134.898 248.782 133.617 248.434 132.316C243.973 115.621 228.064 107.036 211.683 98.197C209.609 97.0775 207.527 95.9539 205.459 94.8092C195.979 89.5606 186.411 82.8422 183.367 72.3255C185.046 72.391 185.668 69.8679 184.701 68.4943C183.982 67.4729 182.845 66.898 181.712 66.3247C181.321 66.127 180.931 65.9296 180.558 65.714C177.096 63.713 175.112 59.6307 173.08 55.4501C170.027 49.1693 166.866 42.6667 158.427 42.6667C158.109 44.7977 158.438 46.6961 158.746 48.4748C159.223 51.2236 159.65 53.6864 157.561 56.2795C151.581 55.6163 145.398 56.9241 140.198 59.9524C137.192 54.2451 129.567 51.8071 123.387 53.6549C124.17 54.64 124.634 55.1341 125.019 55.5436L125.019 55.5437C125.831 56.4089 126.29 56.8971 128.648 60.8401C132.122 66.6497 129.921 88.0071 129.371 91.3838C128.821 94.7605 131.423 97.1602 133.803 95.4927C132.644 100.498 136.82 105.274 141.956 105.418C143.709 105.731 144.799 106.579 145.829 107.381C146.47 107.88 147.088 108.361 147.828 108.683C131.521 120.347 113.47 129.566 94.4614 135.938L94.127 136.05C90.5703 137.24 86.8526 138.484 84.3343 141.248C81.7369 144.099 81.127 149.159 84.1495 151.554C82.304 153.228 79.7784 153.683 77.252 154.138C74.736 154.591 72.2192 155.045 70.3729 156.702ZM238.823 179.274C235.88 182.055 230.118 182.2 226.069 182.184L173.564 181.969C172.048 179.953 172.986 176.856 174.945 175.267C176.905 173.679 179.543 173.251 182.057 173.052C190.173 172.41 198.427 173.576 206.047 176.441C208.187 176.822 209.812 174.122 209.295 172.011C208.778 169.9 206.98 168.391 205.309 167.002C199.915 162.521 194.626 157.474 192.094 150.935C189.468 144.153 190.23 136.153 194.088 129.988C187.61 135.369 186.25 145.261 189.159 153.164C192.068 161.066 198.456 167.213 205.378 172.009C201.597 172.785 197.673 171.921 193.788 171.067L193.788 171.066C189.08 170.031 184.431 169.008 180.168 170.929L179.289 146.948L177.01 167.968C176.84 169.531 176.348 171.465 174.804 171.755C170.611 172.544 168.125 178.035 170.299 181.707C168.425 182.971 165.567 182.405 164.316 180.523C163.065 178.64 163.651 175.786 165.542 174.548C170.131 171.547 170.494 165.081 170.369 159.6L169.507 121.757C169.486 120.843 169.693 119.642 170.598 119.516C183.846 117.676 195.624 107.722 199.648 94.9666C211.389 100.226 223.131 106.29 232.604 114.641C254.284 133.753 248.338 149.644 246.782 153.801C246.51 154.529 246.372 154.898 246.541 154.86C247.622 154.618 248.135 153.401 248.434 152.334C249.133 149.843 249.589 147.283 249.792 144.704C253.369 151.351 259.066 156.401 264.775 161.461C269.992 166.087 275.219 170.721 278.846 176.59C284.44 185.641 285.611 197.289 281.93 207.273C277.582 219.066 267.59 227.315 257.734 235.452C255.366 237.407 253.005 239.356 250.733 241.346C245.977 245.51 241.192 250.671 241.039 256.99C240.998 258.684 241.3 260.353 241.603 262.025C241.817 263.206 242.031 264.389 242.125 265.583C242.35 268.465 241.639 271.744 239.198 273.294C238.169 273.947 236.945 274.216 235.738 274.391C223.229 276.197 207.905 267.732 204.336 255.607C200.835 243.708 206.981 229.029 215.057 219.616C220.074 213.768 226.566 209.589 233.079 205.396C237.05 202.839 241.029 200.278 244.687 197.33C248.115 194.567 251.5 191.589 253.669 187.758C255.838 183.927 256.617 179.057 254.669 175.109C253.072 171.874 249.925 169.627 246.839 167.424C242.959 164.654 239.175 161.953 238.692 157.442C238.751 159.469 239.607 161.739 240.455 163.99L240.455 163.99C241.195 165.952 241.929 167.899 242.124 169.656C242.543 173.429 241.581 176.667 238.823 179.274ZM245.207 171.538C250.477 171.596 253.573 178.268 252.09 183.326C250.608 188.384 246.253 191.984 242.124 195.26C240.052 196.903 237.765 198.627 235.12 198.646L35.7325 200.138L34.8589 184.671L73.3136 184.634C78.2876 184.629 83.9274 184.914 87.1672 188.688C88.3454 190.06 90.4433 188.566 91.8807 187.468C95.2859 184.867 99.9096 184.74 104.194 184.723L244.881 184.152C246.39 184.146 248.42 183.639 248.37 182.131L238.91 181.776C242.308 179.437 244.652 175.625 245.207 171.538ZM98.8909 182.956C101.001 177.859 102.602 172.551 103.663 167.137C103.96 165.617 104.216 164.06 104.014 162.524C103.407 157.914 99.0293 154.88 95.0078 152.546C96.7244 152.512 98.1883 151.298 99.2901 149.981C99.5967 149.615 99.8895 149.234 100.182 148.853L100.182 148.852C100.942 147.864 101.701 146.876 102.701 146.145C104.754 144.645 105.082 144.618 109.322 144.27C109.758 144.234 110.236 144.195 110.762 144.151C114.49 143.835 123.507 140.437 130.091 137.957L130.091 137.957L130.092 137.957L130.092 137.956C133.451 136.691 136.176 135.664 137.242 135.407C151.845 131.883 161.967 136.497 164.246 138.983C165.49 140.34 165.795 142.286 166.045 144.11C167.17 152.315 168.294 160.649 167.11 168.846C166.889 170.376 166.48 172.063 165.183 172.904C163.882 173.747 162.656 174.706 161.527 175.768C159.716 177.47 158.087 180.233 159.494 182.282L98.8909 182.956ZM182.009 70.1968C181.361 69.5747 180.193 69.6246 179.6 70.2997C179.008 70.9748 179.111 72.1397 179.812 72.701C182.182 74.5983 184.001 77.1767 184.993 80.0462C183.704 79.5149 182.286 79.3029 180.899 79.4343C182.33 82.7007 183.303 86.1681 183.779 89.7027L179.307 87.0354C178.906 86.7965 178.477 86.5497 178.011 86.5634C177.544 86.5771 177.059 86.9726 177.133 87.4331C178.808 87.9408 179.671 89.9163 179.502 91.6579C179.334 93.3994 178.389 94.956 177.468 96.4437L173.035 103.606C174.008 104.741 175.853 103.699 176.812 102.551C179.577 99.2433 181.23 95.0224 181.448 90.7167C181.981 90.7859 182.442 91.1052 182.899 91.4216C183.425 91.7863 183.946 92.147 184.565 92.116C185.417 92.0732 186.061 91.2456 186.194 90.4031C186.327 89.5606 186.073 88.7105 185.822 87.8954L183.766 81.2172C185.442 81.3988 186.198 83.0915 186.932 84.7357C187.145 85.2111 187.355 85.6824 187.586 86.112C188.89 88.5428 191.413 90.0245 193.813 91.3837C191.208 96.2072 188.41 100.991 184.662 104.992C180.915 108.993 176.11 112.194 170.714 113.162C169.808 113.324 168.863 113.421 167.976 113.175C166.864 112.866 165.997 112.074 165.133 111.284L165.132 111.284L165.132 111.283L165.132 111.283L165.132 111.283C164.84 111.017 164.549 110.751 164.249 110.503C161.236 108.023 157.268 107.423 153.299 106.822C149.326 106.22 145.353 105.619 142.341 103.132L142.255 103.061C141.924 102.785 141.581 102.499 141.159 102.436C140.701 102.366 140.152 102.719 140.224 103.176C140.281 103.534 139.846 104.27 139.116 103.876C136.299 102.358 135.481 99.0534 134.738 96.051L134.738 96.0509L134.738 96.0508L134.738 96.0508L134.738 96.0506C134.483 95.0184 134.236 94.0219 133.92 93.1461C133.742 92.6537 132.974 92.9038 132.645 93.311C132.626 93.3344 132.607 93.3584 132.588 93.3826L132.565 93.411C132.254 93.8022 131.889 94.2603 131.423 94.1361C130.868 92.0936 131.061 89.7849 131.249 87.5513C131.325 86.6419 131.4 85.7449 131.423 84.8835C131.425 84.8058 131.449 84.5722 131.487 84.2058L131.487 84.2041L131.487 84.2012L131.487 84.2011C131.918 79.9967 134.123 58.4411 125.823 54.5776C127.797 54.1886 130.981 54.5486 133.803 56.2795C136.658 58.0306 138.71 61.2412 138.574 61.4109C140.546 61.1221 142.395 60.3607 144.246 59.598C145.809 58.954 147.375 58.3091 149.019 57.9473C151.014 57.5081 153.075 57.4969 155.118 57.4877L157.816 57.4755C160.722 54.3178 160.61 50.8587 160.48 46.8473C160.455 46.0878 160.43 45.3086 160.424 44.5079C165.461 45.1695 170.801 54.6651 172.484 60.3621C173.187 62.7417 175.263 64.2039 177.363 65.6827C179.19 66.9697 181.036 68.2692 182.009 70.1968ZM96.1496 137.371L96.1506 137.371L96.1525 137.371L96.1555 137.37L96.1568 137.369C96.7313 137.224 97.3023 137.079 97.8655 136.93C106.519 134.64 114.596 130.611 122.602 126.608C132.142 121.839 141.845 116.956 149.498 109.528C150.089 108.954 151.028 108.994 151.845 109.099C154.868 109.489 157.842 110.261 160.672 111.39C162.156 111.982 163.824 112.998 163.835 114.596C163.838 115.158 163.623 115.696 163.41 116.216L161.985 119.71C161.377 121.2 160.758 122.746 160.811 124.355C160.863 125.963 161.777 127.661 163.325 128.103C164.872 128.545 166.784 127.105 166.384 125.546C165.7 122.876 165.231 120.151 164.984 117.406C168 123.378 166.96 130.504 165.848 137.101C161.857 134.998 157.679 133.25 153.379 131.883C151.903 131.414 150.247 131 148.852 131.675C145.437 133.326 139.008 133.766 138.375 133.323C137.742 132.879 136.876 133.093 136.146 133.349C134.972 133.762 132.734 134.634 130.061 135.677L130.059 135.677L130.059 135.677L130.058 135.677L130.058 135.677L130.058 135.678C123.495 138.236 114.309 141.818 111.78 142.138C111.114 142.222 110.444 142.285 109.775 142.347L109.775 142.347C108.327 142.482 106.88 142.617 105.473 142.973C103.415 143.494 101.387 144.572 100.298 146.394C99.4841 145.947 98.9762 145.155 98.4654 144.36C98.219 143.976 97.9718 143.59 97.6893 143.243C96.8215 142.174 94.9996 141.514 94.1676 142.611C93.4378 140.115 89.7424 139.151 87.8864 140.973C87.5995 141.255 87.3602 141.579 87.121 141.903C86.8722 142.241 86.6235 142.578 86.3215 142.867C85.729 143.433 84.7806 143.783 84.0931 143.336C86.9029 139.719 91.6327 138.518 96.1496 137.371ZM86.9909 182.705C84.8709 183.468 82.5318 182.725 80.4288 181.917C78.4408 181.153 76.3655 180.242 75.1578 178.488C73.7043 176.377 73.861 173.591 74.0752 171.037L74.9724 160.338C73.6419 161.457 72.6648 162.99 72.212 164.668C71.137 162.296 72.7361 159.129 75.2828 158.585C74.2069 157.694 72.4359 158.279 71.6765 159.451C70.9171 160.624 70.9343 162.134 71.1563 163.513C71.2162 163.885 71.2892 164.257 71.3621 164.628C71.5595 165.634 71.757 166.64 71.6962 167.658C70.0977 165.16 69.793 161.881 70.904 159.131C71.4071 157.886 72.2989 156.667 73.6031 156.346C74.9073 156.026 76.5214 157.091 76.3054 158.417C75.8102 161.455 77.2268 164.573 79.3991 166.754C81.5715 168.934 84.4181 170.308 87.2915 171.411C88.349 171.818 89.6638 172.748 89.1482 173.756C88.6097 174.81 88.2383 176.002 88.4233 177.17C88.6082 178.339 89.4641 179.455 90.63 179.657C92.067 179.905 93.3458 178.792 94.3788 177.763L100.482 171.682C99.6687 173.942 98.7146 176.151 97.6271 178.293C96.8822 179.759 96.0303 181.245 94.6836 182.19C93.3369 183.134 91.3655 183.38 90.0917 182.339C89.3819 181.759 88.4136 182.145 87.5122 182.504C87.335 182.575 87.1604 182.644 86.9909 182.705ZM86.3867 161.427L86.3865 161.427C85.8172 161.05 85.2474 160.672 84.6571 160.339C82.828 159.307 80.399 158.752 78.72 160.013C78.1817 158.281 79.2458 156.42 80.6336 155.252C83.0887 153.185 86.6881 152.579 89.6848 153.727C92.526 154.817 95.4099 156.002 97.6667 158.043C99.9235 160.084 101.466 163.17 100.887 166.157C100.252 166.312 99.7223 165.802 99.2273 165.326C99.1329 165.235 99.0397 165.145 98.9473 165.062C97.5436 163.792 95.6185 163.758 93.6565 163.723C92.4635 163.701 91.257 163.68 90.1458 163.38C88.7727 163.01 87.581 162.219 86.3867 161.427ZM90.7382 176.86C91.3026 175.447 91.6477 173.892 91.3392 172.403C91.0306 170.913 89.9549 169.517 88.4747 169.167C85.0502 168.357 81.9374 166.291 79.8609 163.45C79.4426 162.877 79.1022 161.984 79.6593 161.546C79.8878 161.366 80.1991 161.339 80.4898 161.343C82.3651 161.371 84.0058 162.348 85.6493 163.326C86.3141 163.721 86.9793 164.117 87.6607 164.451C89.2903 165.248 91.086 165.704 92.8987 165.781C93.2618 165.796 93.6289 165.797 93.9963 165.798H93.9968C95.1538 165.802 96.3145 165.805 97.3658 166.256C98.7513 166.851 99.7733 168.654 98.9082 169.889C96.8548 172.821 93.9865 175.065 91.1624 177.264L90.7382 176.86ZM194.683 93.069C194.998 92.4995 195.466 91.8455 196.112 91.9192C196.949 92.0145 197.118 93.1571 197.003 93.9918C196.187 99.914 192.522 105.179 187.858 108.919C183.194 112.659 177.583 115.027 171.907 116.904C171.517 117.033 171.135 117.276 170.759 117.515C170.042 117.971 169.349 118.412 168.676 118.008C167.9 117.543 168.098 116.266 168.804 115.7C169.445 115.187 170.298 115.077 171.12 114.971L171.122 114.97C171.206 114.96 171.289 114.949 171.371 114.938C176.859 114.199 181.76 110.943 185.509 106.868C189.258 102.793 192.001 97.9136 194.683 93.069ZM92.9278 142.953C93.4222 143.542 93.9669 144.191 94.7172 144.174C95.3484 144.161 95.7415 144.673 96.1489 145.204C96.4377 145.581 96.7337 145.967 97.1266 146.181C98.0665 146.693 98.1473 148.12 97.5304 148.995C96.9136 149.869 95.8431 150.295 94.8074 150.566C92.6956 151.117 90.4658 151.213 88.3146 150.843C86.9117 150.602 85.4575 150.109 84.5732 148.994C83.6889 147.878 83.6638 146.005 84.8346 145.195C85.2263 144.924 85.6978 144.798 86.1665 144.673C86.7256 144.523 87.2807 144.374 87.692 143.983C87.9972 143.692 88.1801 143.305 88.3627 142.918C88.5539 142.513 88.7449 142.108 89.076 141.816C89.612 141.343 90.424 141.279 91.0986 141.515C91.7732 141.751 92.3276 142.246 92.7909 142.79C92.8362 142.843 92.8818 142.898 92.9278 142.953ZM88.9737 186.501C88.7568 186.586 88.5122 186.6 88.2871 186.54C88.0692 186.481 87.8706 186.353 87.727 186.179C87.1428 185.471 87.9571 184.192 88.8457 184.421C89.7343 184.651 89.8275 186.164 88.9737 186.501ZM161.223 182.06C161.007 182.319 160.479 182.292 160.423 181.959C160.193 180.591 160.083 178.908 161.215 178.106L161.407 181.091C161.428 181.428 161.439 181.801 161.223 182.06ZM149.877 61.158C151.105 61.9709 152.074 63.1694 152.611 64.5406C152.72 64.82 152.962 65.0047 153.205 65.1909C153.334 65.2889 153.462 65.3873 153.573 65.5001C153.893 65.8275 153.946 66.5273 153.497 66.6188C153.301 66.6588 153.108 66.5507 152.936 66.448C150.183 64.804 146.835 63.4766 143.831 64.5994C144.325 64.8517 144.574 65.499 144.377 66.0174C144.99 66.0396 145.562 66.3153 146.113 66.5856L147.568 67.2996L147.415 67.7293C145.222 66.6126 142.544 66.4965 140.262 67.4192C141.021 67.5344 141.793 67.5555 142.556 67.4818L145.896 69.1648C146.143 69.2896 146.405 69.4268 146.544 69.6666C146.683 69.9063 146.63 70.2781 146.371 70.377C144.36 68.6031 141.515 67.8187 138.879 68.3114C138.571 68.3688 138.361 67.9398 138.491 67.6553C138.622 67.3709 138.935 67.225 139.226 67.1103C140.687 66.535 142.228 66.1628 143.791 66.0079C143.009 65.2832 142.104 64.6923 141.126 64.2686C140.965 63.7177 141.76 63.1897 142.205 63.5516C145.59 62.8882 149.216 63.5465 152.151 65.3575C152.176 64.7816 151.749 64.2974 151.349 63.8821L147.602 59.9867C149.789 60.2639 151.933 60.8797 153.934 61.8055C154.386 62.0148 154.833 62.2409 155.243 62.5247C156.787 63.5933 157.705 65.5049 157.575 67.3778C156.64 65.4015 155.16 63.6864 153.342 62.4723C152.302 61.7783 151.124 61.2379 149.877 61.158ZM157.582 79.346C157.369 77.6932 157.36 75.9303 158.146 74.461C158.381 74.0216 158.707 73.5994 159.17 73.4153C159.879 73.1334 160.694 73.4931 161.253 74.012C162.639 75.2991 162.934 77.3841 162.815 79.272C162.764 80.0924 162.643 80.9314 162.241 81.6483C161.839 82.3651 161.103 82.9419 160.282 82.954C159.456 82.9661 158.703 82.4082 158.274 81.7034C157.845 80.9985 157.687 80.1645 157.582 79.346ZM137.849 85.4945C136.29 83.1086 136.395 79.7525 138.1 77.4688C138.304 77.1959 138.535 76.9315 138.838 76.7755C139.428 76.4716 140.181 76.6548 140.692 77.0781C141.203 77.5013 141.51 78.1212 141.733 78.7463C142.391 80.5978 142.419 82.6676 141.809 84.5358C141.439 85.6689 140.522 86.8948 139.348 86.6899C138.7 86.5768 138.209 86.0453 137.849 85.4945ZM152.823 97.7491C153.011 97.6971 153.197 97.6454 153.335 97.5134C153.627 97.2339 153.524 96.6937 153.193 96.4623C152.861 96.2309 152.395 96.271 152.042 96.467C151.684 96.6656 151.399 97.0583 151.46 97.4632C151.52 97.8682 152.038 98.1705 152.371 97.9324C152.503 97.838 152.664 97.7934 152.823 97.7491ZM157.032 91.1707C159.621 90.5972 161.067 90.6698 163.288 91.2357L163.756 91.3578C165.972 91.9364 167.356 91.9389 170.168 91.0273C170.504 90.9183 170.865 91.1025 170.974 91.4387C171.083 91.775 165.951 93.2331 163.606 92.6407L163.173 92.5282C161.013 91.9608 159.757 91.8781 157.309 92.4204C156.964 92.4969 156.622 92.2791 156.546 91.934C156.47 91.5889 156.687 91.2472 157.032 91.1707ZM177.361 84.9895C177.205 84.6723 176.822 84.5418 176.505 84.6979C171.95 86.9399 169.426 87.2319 165.273 86.7017L164.225 86.5718C164.105 86.5583 164 86.5473 163.89 86.5366L163.516 86.5033C161.043 86.3089 159.082 86.7285 156.567 88.2309C156.263 88.4121 156.164 88.8051 156.345 89.1085C156.527 89.412 156.92 89.5111 157.223 89.3299C159.564 87.932 161.292 87.5853 163.602 87.7952C163.755 87.8091 163.882 87.8216 164.031 87.8381L165.567 88.027C169.693 88.5061 177.518 85.3066 177.361 84.9895ZM145.763 90.9978C146.116 90.9727 146.422 91.2381 146.447 91.5907C146.472 91.9433 146.207 92.2494 145.854 92.2745C144.395 92.3784 143.39 92.8746 141.882 94.0902L141.336 94.5409L141.189 94.6645L140.949 94.8652C139.619 95.9738 138.733 96.578 137.559 97.0598C137.232 97.1939 134.973 97.6534 136.724 96.7105C138.474 95.7676 140.755 93.3586 140.755 93.3586L141.089 93.0853C142.782 91.7228 143.993 91.1238 145.763 90.9978ZM146.724 94.0596C146.585 93.7346 146.209 93.5835 145.884 93.7223C144.277 94.408 143.373 95.2844 141.853 97.2739L141.383 97.8844C141.076 98.2779 140.818 98.6749 140.568 99.0601C140.016 99.9097 139.502 100.702 138.573 101.274C137.223 102.104 139.152 101.669 139.453 101.484C140.652 100.746 141.43 99.9329 142.643 98.3482L142.995 97.888C144.312 96.1804 145.081 95.4567 146.386 94.8995C146.711 94.7607 146.862 94.3847 146.724 94.0596Z" fill="#00160A"/>
<path fill-rule="evenodd" clip-rule="evenodd" d="M148.965 92.0267C148.441 91.5548 147.681 91.4103 147.169 90.9252C146.684 90.4653 146.499 89.7155 146.713 89.0827C146.928 88.4498 147.531 87.9672 148.195 87.8968C150.101 87.6947 152.007 87.4926 153.913 87.2906C154.366 87.2426 154.866 87.2066 155.232 87.4762C155.792 87.8878 155.704 88.7873 155.299 89.352C154.895 89.9167 154.271 90.2806 153.784 90.7756C153.156 91.4136 152.763 92.2782 152.696 93.171C152.646 93.8339 152.718 94.6239 152.193 95.0313C151.534 95.5426 150.558 94.9383 150.155 94.208C149.751 93.4777 149.585 92.5853 148.965 92.0267H148.965Z" fill="#FFB61D"/>
<path fill-rule="evenodd" clip-rule="evenodd" d="M226.255 182.364C230.304 182.38 236.066 182.235 239.008 179.454C241.767 176.847 242.728 173.609 242.309 169.837C241.891 166.064 238.989 161.416 238.878 157.622C239.745 165.721 251.25 167.986 254.854 175.289C256.803 179.237 256.024 184.108 253.855 187.939C251.686 191.77 248.301 194.748 244.873 197.51C235.216 205.293 223.319 210.383 215.243 219.796C207.167 229.209 201.02 243.889 204.522 255.787C208.091 267.912 223.415 276.377 235.924 274.571C237.131 274.396 238.355 274.127 239.384 273.474C241.825 271.924 242.536 268.645 242.31 265.763C242.085 262.881 241.154 260.061 241.224 257.171C241.378 250.851 246.163 245.691 250.919 241.526C262.647 231.256 276.723 222.08 282.116 207.453C285.796 197.47 284.625 185.821 279.032 176.77C271.436 164.479 256.825 157.606 249.977 144.884C249.775 147.463 249.319 150.023 248.62 152.515C248.321 153.581 247.808 154.798 246.727 155.04C245.592 155.294 258.268 137.281 232.79 114.821C223.317 106.47 211.574 100.406 199.834 95.1467C195.81 107.902 184.032 117.856 170.784 119.696C169.879 119.822 169.672 121.023 169.693 121.937C169.98 134.551 170.267 147.166 170.555 159.78C170.679 165.262 170.316 171.727 165.728 174.728C163.837 175.966 163.25 178.82 164.501 180.703C165.752 182.586 168.611 183.151 170.484 181.887C168.311 178.216 170.796 172.724 174.989 171.935C176.534 171.645 177.026 169.711 177.196 168.148C177.955 161.142 178.715 154.135 179.474 147.128C179.767 155.122 180.06 163.115 180.353 171.109C188.135 167.603 197.202 173.904 205.563 172.19C198.641 167.394 192.253 161.246 189.344 153.344C186.435 145.441 187.796 135.549 194.274 130.168C190.415 136.333 189.654 144.333 192.279 151.115C194.811 157.655 200.1 162.701 205.494 167.182C207.166 168.571 208.964 170.08 209.481 172.191C209.998 174.302 208.373 177.002 206.233 176.622C198.613 173.756 190.359 172.59 182.243 173.232C179.729 173.432 177.091 173.859 175.131 175.447C173.172 177.036 172.234 180.133 173.75 182.149C191.252 182.221 208.754 182.292 226.255 182.364Z" fill="white"/>
<path fill-rule="evenodd" clip-rule="evenodd" d="M235.738 274.391C236.945 274.216 238.169 273.947 239.198 273.294C241.639 271.744 242.35 268.465 242.124 265.583C241.899 262.701 240.968 259.881 241.038 256.99C241.192 250.67 245.977 245.51 250.733 241.346C262.461 231.075 276.537 221.9 281.93 207.273C284.089 201.416 256.978 219.325 242.124 240.41C231.658 255.267 230.567 275.137 235.738 274.391Z" fill="#E7EAEE"/>
<path fill-rule="evenodd" clip-rule="evenodd" d="M245.712 128.746C243.874 124.32 238.751 120.06 232.605 114.641C223.131 106.29 211.389 100.226 199.648 94.9666C211.161 103.353 225.196 110.353 235.183 120.879C240.05 126.009 243.343 136.348 246.095 139.67C248.202 142.214 250.953 141.367 245.712 128.746Z" fill="#E7EAEE"/>
<path fill-rule="evenodd" clip-rule="evenodd" d="M164.59 127.01C165.008 126.098 165.301 121.891 163.102 121.891C161.73 123.449 161.871 126.437 164.59 127.01Z" fill="#FFB61D"/>
<path fill-rule="evenodd" clip-rule="evenodd" d="M97.8662 136.929C92.8729 138.251 87.2624 139.257 84.0938 143.336C84.7813 143.782 85.7297 143.433 86.3222 142.867C86.9147 142.3 87.302 141.547 87.8871 140.973C89.743 139.151 93.4384 140.114 94.1683 142.611C95.0003 141.514 96.8222 142.174 97.69 143.242C98.5578 144.311 99.0921 145.73 100.298 146.394C101.387 144.572 103.416 143.493 105.474 142.973C107.531 142.452 109.675 142.404 111.78 142.138C115.34 141.687 118.819 140.599 122.002 138.942C121.808 139.339 134.996 133.62 147.064 132.791C155.876 132.186 164.164 136.213 165.849 137.101C166.961 130.504 168.001 123.378 164.985 117.406C165.232 120.151 165.7 122.876 166.385 125.546C166.785 127.105 164.873 128.545 163.325 128.103C161.778 127.661 160.864 125.963 160.811 124.354C160.759 122.746 161.378 121.2 161.986 119.709C162.461 118.545 162.936 117.38 163.411 116.216C163.623 115.695 163.839 115.158 163.835 114.595C163.825 112.998 162.157 111.982 160.673 111.39C157.842 110.26 154.869 109.489 151.846 109.099C151.028 108.994 150.09 108.954 149.499 109.528C141.846 116.956 132.142 121.839 122.603 126.608C114.596 130.61 106.52 134.64 97.8662 136.929Z" fill="white"/>
<path fill-rule="evenodd" clip-rule="evenodd" d="M100.3 146.394C101.389 144.572 103.418 143.493 105.476 142.973C107.533 142.452 109.677 142.404 111.782 142.138C112.604 142.034 115.978 141.501 120.357 139.964C126.689 137.743 135.381 134.196 143.663 133.293C154.473 132.115 164.112 136.185 165.851 137.101C166.963 130.504 163.202 131.296 161.184 131.087C116.551 126.477 99.0941 145.73 100.3 146.394Z" fill="#E7EAEE"/>
</svg>
