<svg width="82" height="83" viewBox="0 0 82 83" fill="none" xmlns="http://www.w3.org/2000/svg">
<ellipse cx="41" cy="70" rx="40" ry="12" stroke="black" stroke-width="2"/>
<ellipse cx="41" cy="68" rx="20" ry="6" stroke="black" stroke-width="2"/>
<path fill-rule="evenodd" clip-rule="evenodd" d="M44 71C44 71 67 53 67 29C67 17 59.3333 5 44 5C28.6667 5 21 17 21 29C21 53 44 71 44 71ZM44 35C47.866 35 51 31.866 51 28C51 24.134 47.866 21 44 21C40.134 21 37 24.134 37 28C37 31.866 40.134 35 44 35Z" fill="#30F2C4"/>
<path d="M41 68L40.3837 68.7875C40.7457 69.0708 41.2543 69.0708 41.6163 68.7875L41 68ZM41 68C41.6163 68.7875 41.6166 68.7872 41.6171 68.7869L41.6184 68.7859L41.6225 68.7826L41.637 68.7712L41.6904 68.7287C41.7367 68.6917 41.8041 68.6374 41.8912 68.5662C42.0654 68.4239 42.3184 68.2138 42.6391 67.9389C43.2803 67.3893 44.1924 66.5802 45.285 65.5351C47.4691 63.446 50.3806 60.408 53.2936 56.6084C59.1055 49.0277 65 38.3145 65 26C65 19.7981 63.0204 13.5579 59.0112 8.85153C54.9838 4.12365 48.9532 1 41 1C33.0468 1 27.0162 4.12365 22.9888 8.85153C18.9796 13.5579 17 19.7981 17 26C17 38.3145 22.8945 49.0277 28.7064 56.6084C31.6194 60.408 34.5309 63.446 36.715 65.5351C37.8076 66.5802 38.7197 67.3893 39.3609 67.9389C39.6816 68.2138 39.9346 68.4239 40.1088 68.5662C40.1959 68.6374 40.2633 68.6917 40.3096 68.7287L40.363 68.7712L40.3775 68.7826L40.3816 68.7859L40.3829 68.7869C40.3834 68.7872 40.3837 68.7875 41 68Z" stroke="black" stroke-width="2" stroke-linecap="round" stroke-linejoin="round"/>
<circle cx="41" cy="25" r="8" stroke="black" stroke-width="2"/>
</svg>
